; NON-PLATED HOLES START AT T1
; THROUGH (PLATED) HOLES START AT T100
M48
INCH
T100C0.040000
T101C0.036000
T102C0.035000
T103C0.032000
T104C0.035433
T105C0.031497
%
T100
X022880Y005182
X022880Y006560
X018641Y022062
X022880Y010560
X019263Y001812
X016641Y001812
X016641Y022062
X022880Y017182
X015641Y022062
X022880Y018560
X015263Y001812
X012641Y001812
X022880Y001182
X011263Y001812
X022880Y002560
X003921Y003872
X022391Y020684
X022880Y009182
X002141Y003872
X022880Y013182
X017641Y022062
X020641Y001812
X007891Y001812
X022880Y014560
X003921Y001312
X014641Y022062
X006513Y001812
X013641Y022062
X022391Y022062
X002141Y001312
T101
X000641Y010062
X006641Y019062
X006641Y016062
X000641Y018062
X006641Y009062
X006641Y020062
X006641Y013062
X000641Y015062
X006641Y006062
X000641Y008062
X006641Y010062
X000641Y012062
X006641Y018062
X006641Y015062
X000641Y017062
X006641Y008062
X006641Y012062
X000641Y014062
X000641Y007062
X000641Y011062
X006641Y017062
X000641Y019062
X006641Y014062
X000641Y016062
X006641Y007062
X000641Y009062
X000641Y020062
X006641Y011062
X000641Y013062
X000641Y006062
T102
X005641Y003562
X008120Y018868
X012141Y014812
X008141Y014812
X012141Y011812
X008120Y015868
X008141Y011812
X012120Y019868
X012141Y016812
X008141Y016812
X012141Y013812
X008120Y017868
X008141Y013812
X012141Y010812
X008141Y010812
X012120Y018868
X012120Y015868
X008120Y019868
X012141Y012812
X008141Y012812
X009641Y003562
X012120Y017868
T103
X019891Y007562
X020641Y016312
X020641Y014062
X020641Y007062
X019891Y003812
X020641Y011062
X010391Y005812
X020641Y003312
X019891Y013562
X019891Y010562
X020641Y013062
X020891Y022062
X020641Y010062
X020141Y021562
X020641Y017312
X020641Y008062
X009641Y006312
X020891Y021062
X010391Y006812
X020641Y004312
X019891Y016812
T104
X016391Y004312
X009641Y020812
X009641Y008312
X012141Y020812
X010641Y009312
T105
X011641Y022312
X010945Y021616
T00
M30
