G04 MADE WITH FRITZING*
G04 WWW.FRITZING.ORG*
G04 DOUBLE SIDED*
G04 HOLES PLATED*
G04 CONTOUR ON CENTER OF CONTOUR VECTOR*
%ASAXBY*%
%FSLAX23Y23*%
%MOIN*%
%OFA0B0*%
%SFA1.0B1.0*%
%ADD10C,0.084000*%
%ADD11C,0.090000*%
%ADD12C,0.085000*%
%ADD13C,0.072992*%
%ADD14C,0.080000*%
%ADD15C,0.085433*%
%ADD16R,0.090000X0.090000*%
%ADD17R,0.079972X0.080000*%
%ADD18C,0.025748*%
%LNMASK0*%
G90*
G70*
G54D10*
X1864Y2206D03*
X1764Y2206D03*
X1664Y2206D03*
X1564Y2206D03*
X1464Y2206D03*
X1364Y2206D03*
X214Y131D03*
X214Y387D03*
X392Y131D03*
X392Y387D03*
X2064Y1306D03*
X1989Y1356D03*
X2064Y1406D03*
X2064Y1006D03*
X1989Y1056D03*
X2064Y1106D03*
X1039Y581D03*
X964Y631D03*
X1039Y681D03*
X2064Y331D03*
X1989Y381D03*
X2064Y431D03*
X2064Y706D03*
X1989Y756D03*
X2064Y806D03*
X2064Y1631D03*
X1989Y1681D03*
X2064Y1731D03*
X2089Y2106D03*
X2014Y2156D03*
X2089Y2206D03*
G54D11*
X2064Y181D03*
X1926Y181D03*
X2288Y1056D03*
X2288Y918D03*
X2288Y1456D03*
X2288Y1318D03*
X1664Y181D03*
X1526Y181D03*
X1264Y181D03*
X1126Y181D03*
X789Y181D03*
X651Y181D03*
X2288Y256D03*
X2288Y118D03*
X2288Y656D03*
X2288Y518D03*
X2288Y1856D03*
X2288Y1718D03*
X2239Y2206D03*
X2239Y2068D03*
G54D12*
X812Y1787D03*
X1212Y1787D03*
X812Y1587D03*
X1212Y1587D03*
X814Y1281D03*
X1214Y1281D03*
X964Y356D03*
X564Y356D03*
X812Y1987D03*
X1212Y1987D03*
X814Y1681D03*
X1214Y1681D03*
X814Y1481D03*
X1214Y1481D03*
X814Y1181D03*
X1214Y1181D03*
X814Y1381D03*
X1214Y1381D03*
X814Y1081D03*
X1214Y1081D03*
X812Y1887D03*
X1212Y1887D03*
G54D13*
X1095Y2162D03*
X1164Y2231D03*
G54D14*
X664Y606D03*
X664Y706D03*
X664Y806D03*
X664Y906D03*
X664Y1006D03*
X664Y1106D03*
X664Y1206D03*
X664Y1306D03*
X664Y1406D03*
X664Y1506D03*
X664Y1606D03*
X664Y1706D03*
X664Y1806D03*
X664Y1906D03*
X664Y2006D03*
X64Y606D03*
X64Y706D03*
X64Y806D03*
X64Y906D03*
X64Y1006D03*
X64Y1106D03*
X64Y1206D03*
X64Y1306D03*
X64Y1406D03*
X64Y1506D03*
X64Y1606D03*
X64Y1706D03*
X64Y1806D03*
X64Y1906D03*
X64Y2006D03*
G54D15*
X1064Y931D03*
X964Y2081D03*
X1214Y2081D03*
X964Y831D03*
X1639Y431D03*
G54D16*
X2064Y181D03*
X2288Y1056D03*
X2288Y1456D03*
X1664Y181D03*
X1264Y181D03*
X789Y181D03*
X2288Y256D03*
X2288Y656D03*
X2288Y1856D03*
X2239Y2206D03*
G54D17*
X664Y606D03*
G54D18*
G36*
X1128Y2162D02*
X1095Y2128D01*
X1061Y2162D01*
X1095Y2195D01*
X1128Y2162D01*
G37*
D02*
G04 End of Mask0*
M02*