G04 MADE WITH FRITZING*
G04 WWW.FRITZING.ORG*
G04 DOUBLE SIDED*
G04 HOLES PLATED*
G04 CONTOUR ON CENTER OF CONTOUR VECTOR*
%ASAXBY*%
%FSLAX23Y23*%
%MOIN*%
%OFA0B0*%
%SFA1.0B1.0*%
%ADD10R,2.362200X2.362200X2.346200X2.346200*%
%ADD11C,0.008000*%
%ADD12R,0.001000X0.001000*%
%LNSILK0*%
G90*
G70*
G54D11*
X4Y2358D02*
X2358Y2358D01*
X2358Y4D01*
X4Y4D01*
X4Y2358D01*
D02*
X1864Y822D02*
X1864Y755D01*
D02*
X1345Y822D02*
X1345Y755D01*
D02*
X1864Y1527D02*
X1825Y1527D01*
D02*
X1864Y1527D02*
X1864Y1488D01*
D02*
X1345Y1527D02*
X1384Y1527D01*
D02*
X1345Y1527D02*
X1345Y1488D01*
D02*
X1345Y511D02*
X1384Y511D01*
D02*
X1345Y511D02*
X1345Y551D01*
D02*
X1864Y511D02*
X1825Y511D01*
D02*
X1864Y511D02*
X1864Y551D01*
G54D12*
X1289Y2256D02*
X1938Y2256D01*
X1289Y2255D02*
X1938Y2255D01*
X1289Y2254D02*
X1938Y2254D01*
X1289Y2253D02*
X1938Y2253D01*
X1289Y2252D02*
X1938Y2252D01*
X1289Y2251D02*
X1938Y2251D01*
X1289Y2250D02*
X1938Y2250D01*
X1289Y2249D02*
X1938Y2249D01*
X1289Y2248D02*
X1296Y2248D01*
X1931Y2248D02*
X1938Y2248D01*
X1289Y2247D02*
X1296Y2247D01*
X1931Y2247D02*
X1938Y2247D01*
X1289Y2246D02*
X1296Y2246D01*
X1931Y2246D02*
X1938Y2246D01*
X1289Y2245D02*
X1296Y2245D01*
X1931Y2245D02*
X1938Y2245D01*
X1289Y2244D02*
X1296Y2244D01*
X1931Y2244D02*
X1938Y2244D01*
X1289Y2243D02*
X1296Y2243D01*
X1931Y2243D02*
X1938Y2243D01*
X1289Y2242D02*
X1296Y2242D01*
X1931Y2242D02*
X1938Y2242D01*
X1289Y2241D02*
X1296Y2241D01*
X1931Y2241D02*
X1938Y2241D01*
X1289Y2240D02*
X1296Y2240D01*
X1931Y2240D02*
X1938Y2240D01*
X1289Y2239D02*
X1296Y2239D01*
X1931Y2239D02*
X1938Y2239D01*
X1289Y2238D02*
X1296Y2238D01*
X1931Y2238D02*
X1938Y2238D01*
X1289Y2237D02*
X1296Y2237D01*
X1931Y2237D02*
X1938Y2237D01*
X1289Y2236D02*
X1296Y2236D01*
X1931Y2236D02*
X1938Y2236D01*
X1289Y2235D02*
X1296Y2235D01*
X1931Y2235D02*
X1938Y2235D01*
X1289Y2234D02*
X1296Y2234D01*
X1931Y2234D02*
X1938Y2234D01*
X1289Y2233D02*
X1296Y2233D01*
X1931Y2233D02*
X1938Y2233D01*
X1289Y2232D02*
X1296Y2232D01*
X1931Y2232D02*
X1938Y2232D01*
X1289Y2231D02*
X1296Y2231D01*
X1931Y2231D02*
X1938Y2231D01*
X1289Y2230D02*
X1296Y2230D01*
X1931Y2230D02*
X1938Y2230D01*
X1289Y2229D02*
X1296Y2229D01*
X1931Y2229D02*
X1938Y2229D01*
X1289Y2228D02*
X1296Y2228D01*
X1931Y2228D02*
X1938Y2228D01*
X1289Y2227D02*
X1296Y2227D01*
X1931Y2227D02*
X1938Y2227D01*
X1289Y2226D02*
X1296Y2226D01*
X1931Y2226D02*
X1938Y2226D01*
X1289Y2225D02*
X1296Y2225D01*
X1931Y2225D02*
X1938Y2225D01*
X1289Y2224D02*
X1296Y2224D01*
X1931Y2224D02*
X1938Y2224D01*
X1289Y2223D02*
X1296Y2223D01*
X1931Y2223D02*
X1938Y2223D01*
X1289Y2222D02*
X1296Y2222D01*
X1931Y2222D02*
X1938Y2222D01*
X1289Y2221D02*
X1296Y2221D01*
X1931Y2221D02*
X1938Y2221D01*
X1289Y2220D02*
X1296Y2220D01*
X1931Y2220D02*
X1938Y2220D01*
X1289Y2219D02*
X1296Y2219D01*
X1931Y2219D02*
X1938Y2219D01*
X1289Y2218D02*
X1296Y2218D01*
X1931Y2218D02*
X1938Y2218D01*
X1289Y2217D02*
X1296Y2217D01*
X1931Y2217D02*
X1938Y2217D01*
X1289Y2216D02*
X1296Y2216D01*
X1931Y2216D02*
X1938Y2216D01*
X1289Y2215D02*
X1296Y2215D01*
X1931Y2215D02*
X1938Y2215D01*
X1289Y2214D02*
X1296Y2214D01*
X1931Y2214D02*
X1938Y2214D01*
X1289Y2213D02*
X1296Y2213D01*
X1931Y2213D02*
X1938Y2213D01*
X1289Y2212D02*
X1296Y2212D01*
X1931Y2212D02*
X1938Y2212D01*
X1289Y2211D02*
X1296Y2211D01*
X1931Y2211D02*
X1938Y2211D01*
X1289Y2210D02*
X1296Y2210D01*
X1931Y2210D02*
X1938Y2210D01*
X1289Y2209D02*
X1296Y2209D01*
X1931Y2209D02*
X1938Y2209D01*
X1289Y2208D02*
X1296Y2208D01*
X1931Y2208D02*
X1938Y2208D01*
X1289Y2207D02*
X1296Y2207D01*
X1931Y2207D02*
X1938Y2207D01*
X1289Y2206D02*
X1296Y2206D01*
X1931Y2206D02*
X1938Y2206D01*
X1289Y2205D02*
X1296Y2205D01*
X1931Y2205D02*
X1938Y2205D01*
X1289Y2204D02*
X1296Y2204D01*
X1931Y2204D02*
X1938Y2204D01*
X1289Y2203D02*
X1296Y2203D01*
X1931Y2203D02*
X1938Y2203D01*
X1289Y2202D02*
X1296Y2202D01*
X1931Y2202D02*
X1938Y2202D01*
X1289Y2201D02*
X1296Y2201D01*
X1931Y2201D02*
X1938Y2201D01*
X1289Y2200D02*
X1296Y2200D01*
X1931Y2200D02*
X1938Y2200D01*
X1289Y2199D02*
X1296Y2199D01*
X1931Y2199D02*
X1938Y2199D01*
X1289Y2198D02*
X1296Y2198D01*
X1931Y2198D02*
X1938Y2198D01*
X1289Y2197D02*
X1296Y2197D01*
X1931Y2197D02*
X1938Y2197D01*
X1289Y2196D02*
X1296Y2196D01*
X1931Y2196D02*
X1938Y2196D01*
X1289Y2195D02*
X1296Y2195D01*
X1931Y2195D02*
X1938Y2195D01*
X1289Y2194D02*
X1296Y2194D01*
X1931Y2194D02*
X1938Y2194D01*
X1289Y2193D02*
X1296Y2193D01*
X1931Y2193D02*
X1938Y2193D01*
X1289Y2192D02*
X1296Y2192D01*
X1931Y2192D02*
X1938Y2192D01*
X1289Y2191D02*
X1296Y2191D01*
X1931Y2191D02*
X1938Y2191D01*
X1289Y2190D02*
X1296Y2190D01*
X1931Y2190D02*
X1938Y2190D01*
X1289Y2189D02*
X1296Y2189D01*
X1931Y2189D02*
X1938Y2189D01*
X1289Y2188D02*
X1296Y2188D01*
X1931Y2188D02*
X1938Y2188D01*
X1289Y2187D02*
X1296Y2187D01*
X1931Y2187D02*
X1938Y2187D01*
X1289Y2186D02*
X1296Y2186D01*
X1931Y2186D02*
X1938Y2186D01*
X1289Y2185D02*
X1296Y2185D01*
X1931Y2185D02*
X1938Y2185D01*
X1289Y2184D02*
X1296Y2184D01*
X1931Y2184D02*
X1938Y2184D01*
X1289Y2183D02*
X1296Y2183D01*
X1931Y2183D02*
X1938Y2183D01*
X1289Y2182D02*
X1296Y2182D01*
X1931Y2182D02*
X1938Y2182D01*
X1289Y2181D02*
X1296Y2181D01*
X1931Y2181D02*
X1938Y2181D01*
X1289Y2180D02*
X1296Y2180D01*
X1931Y2180D02*
X1938Y2180D01*
X1289Y2179D02*
X1296Y2179D01*
X1931Y2179D02*
X1938Y2179D01*
X1289Y2178D02*
X1296Y2178D01*
X1931Y2178D02*
X1938Y2178D01*
X1289Y2177D02*
X1296Y2177D01*
X1931Y2177D02*
X1938Y2177D01*
X1289Y2176D02*
X1296Y2176D01*
X1931Y2176D02*
X1938Y2176D01*
X1289Y2175D02*
X1296Y2175D01*
X1931Y2175D02*
X1938Y2175D01*
X1289Y2174D02*
X1296Y2174D01*
X1931Y2174D02*
X1938Y2174D01*
X1289Y2173D02*
X1296Y2173D01*
X1931Y2173D02*
X1938Y2173D01*
X1289Y2172D02*
X1296Y2172D01*
X1931Y2172D02*
X1938Y2172D01*
X1289Y2171D02*
X1296Y2171D01*
X1931Y2171D02*
X1938Y2171D01*
X1289Y2170D02*
X1296Y2170D01*
X1931Y2170D02*
X1938Y2170D01*
X1289Y2169D02*
X1296Y2169D01*
X1931Y2169D02*
X1938Y2169D01*
X1289Y2168D02*
X1296Y2168D01*
X1931Y2168D02*
X1938Y2168D01*
X1289Y2167D02*
X1296Y2167D01*
X1931Y2167D02*
X1938Y2167D01*
X1289Y2166D02*
X1296Y2166D01*
X1931Y2166D02*
X1938Y2166D01*
X1289Y2165D02*
X1296Y2165D01*
X1931Y2165D02*
X1938Y2165D01*
X1289Y2164D02*
X1296Y2164D01*
X1931Y2164D02*
X1938Y2164D01*
X1289Y2163D02*
X1296Y2163D01*
X1931Y2163D02*
X1938Y2163D01*
X1289Y2162D02*
X1296Y2162D01*
X1931Y2162D02*
X1938Y2162D01*
X1289Y2161D02*
X1296Y2161D01*
X1931Y2161D02*
X1938Y2161D01*
X1289Y2160D02*
X1296Y2160D01*
X1931Y2160D02*
X1938Y2160D01*
X1289Y2159D02*
X1296Y2159D01*
X1931Y2159D02*
X1938Y2159D01*
X1289Y2158D02*
X1296Y2158D01*
X1931Y2158D02*
X1938Y2158D01*
X1289Y2157D02*
X1296Y2157D01*
X1931Y2157D02*
X1938Y2157D01*
X1289Y2156D02*
X1296Y2156D01*
X1931Y2156D02*
X1938Y2156D01*
X1289Y2155D02*
X1296Y2155D01*
X1931Y2155D02*
X1938Y2155D01*
X1289Y2154D02*
X1296Y2154D01*
X1931Y2154D02*
X1938Y2154D01*
X1289Y2153D02*
X1296Y2153D01*
X1931Y2153D02*
X1938Y2153D01*
X1289Y2152D02*
X1296Y2152D01*
X1931Y2152D02*
X1938Y2152D01*
X1289Y2151D02*
X1296Y2151D01*
X1931Y2151D02*
X1938Y2151D01*
X1289Y2150D02*
X1296Y2150D01*
X1931Y2150D02*
X1938Y2150D01*
X1289Y2149D02*
X1296Y2149D01*
X1931Y2149D02*
X1938Y2149D01*
X1289Y2148D02*
X1296Y2148D01*
X1931Y2148D02*
X1938Y2148D01*
X1289Y2147D02*
X1296Y2147D01*
X1931Y2147D02*
X1938Y2147D01*
X1289Y2146D02*
X1296Y2146D01*
X1931Y2146D02*
X1938Y2146D01*
X1289Y2145D02*
X1296Y2145D01*
X1931Y2145D02*
X1938Y2145D01*
X1289Y2144D02*
X1296Y2144D01*
X1931Y2144D02*
X1938Y2144D01*
X1289Y2143D02*
X1296Y2143D01*
X1931Y2143D02*
X1938Y2143D01*
X1289Y2142D02*
X1296Y2142D01*
X1931Y2142D02*
X1938Y2142D01*
X1289Y2141D02*
X1296Y2141D01*
X1931Y2141D02*
X1938Y2141D01*
X1289Y2140D02*
X1296Y2140D01*
X1931Y2140D02*
X1938Y2140D01*
X1289Y2139D02*
X1296Y2139D01*
X1931Y2139D02*
X1938Y2139D01*
X1289Y2138D02*
X1296Y2138D01*
X1931Y2138D02*
X1938Y2138D01*
X1289Y2137D02*
X1296Y2137D01*
X1931Y2137D02*
X1938Y2137D01*
X1289Y2136D02*
X1296Y2136D01*
X1931Y2136D02*
X1938Y2136D01*
X1289Y2135D02*
X1296Y2135D01*
X1931Y2135D02*
X1938Y2135D01*
X1289Y2134D02*
X1296Y2134D01*
X1931Y2134D02*
X1938Y2134D01*
X1289Y2133D02*
X1296Y2133D01*
X1931Y2133D02*
X1938Y2133D01*
X1289Y2132D02*
X1296Y2132D01*
X1931Y2132D02*
X1938Y2132D01*
X1289Y2131D02*
X1296Y2131D01*
X1931Y2131D02*
X1938Y2131D01*
X1289Y2130D02*
X1296Y2130D01*
X1931Y2130D02*
X1938Y2130D01*
X1289Y2129D02*
X1296Y2129D01*
X1931Y2129D02*
X1938Y2129D01*
X1289Y2128D02*
X1296Y2128D01*
X1931Y2128D02*
X1938Y2128D01*
X1289Y2127D02*
X1296Y2127D01*
X1931Y2127D02*
X1938Y2127D01*
X1289Y2126D02*
X1296Y2126D01*
X1931Y2126D02*
X1938Y2126D01*
X1289Y2125D02*
X1296Y2125D01*
X1931Y2125D02*
X1938Y2125D01*
X1289Y2124D02*
X1296Y2124D01*
X1931Y2124D02*
X1938Y2124D01*
X1289Y2123D02*
X1296Y2123D01*
X1931Y2123D02*
X1938Y2123D01*
X1289Y2122D02*
X1296Y2122D01*
X1931Y2122D02*
X1938Y2122D01*
X1289Y2121D02*
X1296Y2121D01*
X1931Y2121D02*
X1938Y2121D01*
X1289Y2120D02*
X1296Y2120D01*
X1931Y2120D02*
X1938Y2120D01*
X1289Y2119D02*
X1296Y2119D01*
X1931Y2119D02*
X1938Y2119D01*
X1289Y2118D02*
X1296Y2118D01*
X1931Y2118D02*
X1938Y2118D01*
X1289Y2117D02*
X1296Y2117D01*
X1931Y2117D02*
X1938Y2117D01*
X1289Y2116D02*
X1296Y2116D01*
X1931Y2116D02*
X1938Y2116D01*
X1289Y2115D02*
X1296Y2115D01*
X1931Y2115D02*
X1938Y2115D01*
X1289Y2114D02*
X1296Y2114D01*
X1931Y2114D02*
X1938Y2114D01*
X1289Y2113D02*
X1296Y2113D01*
X1931Y2113D02*
X1938Y2113D01*
X1289Y2112D02*
X1296Y2112D01*
X1931Y2112D02*
X1938Y2112D01*
X1289Y2111D02*
X1296Y2111D01*
X1931Y2111D02*
X1938Y2111D01*
X1289Y2110D02*
X1296Y2110D01*
X1931Y2110D02*
X1938Y2110D01*
X1289Y2109D02*
X1296Y2109D01*
X1931Y2109D02*
X1938Y2109D01*
X1289Y2108D02*
X1296Y2108D01*
X1931Y2108D02*
X1938Y2108D01*
X1289Y2107D02*
X1296Y2107D01*
X1931Y2107D02*
X1938Y2107D01*
X1289Y2106D02*
X1296Y2106D01*
X1931Y2106D02*
X1938Y2106D01*
X1289Y2105D02*
X1296Y2105D01*
X1931Y2105D02*
X1938Y2105D01*
X1289Y2104D02*
X1296Y2104D01*
X1931Y2104D02*
X1938Y2104D01*
X1289Y2103D02*
X1296Y2103D01*
X1931Y2103D02*
X1938Y2103D01*
X1289Y2102D02*
X1296Y2102D01*
X1931Y2102D02*
X1938Y2102D01*
X1289Y2101D02*
X1296Y2101D01*
X1931Y2101D02*
X1938Y2101D01*
X1289Y2100D02*
X1296Y2100D01*
X1931Y2100D02*
X1938Y2100D01*
X1289Y2099D02*
X1296Y2099D01*
X1931Y2099D02*
X1938Y2099D01*
X1289Y2098D02*
X1296Y2098D01*
X1931Y2098D02*
X1938Y2098D01*
X1289Y2097D02*
X1296Y2097D01*
X1931Y2097D02*
X1938Y2097D01*
X1289Y2096D02*
X1296Y2096D01*
X1931Y2096D02*
X1938Y2096D01*
X1289Y2095D02*
X1296Y2095D01*
X1931Y2095D02*
X1938Y2095D01*
X1289Y2094D02*
X1296Y2094D01*
X1931Y2094D02*
X1938Y2094D01*
X1289Y2093D02*
X1296Y2093D01*
X1931Y2093D02*
X1938Y2093D01*
X1289Y2092D02*
X1296Y2092D01*
X1931Y2092D02*
X1938Y2092D01*
X1289Y2091D02*
X1296Y2091D01*
X1931Y2091D02*
X1938Y2091D01*
X1289Y2090D02*
X1296Y2090D01*
X1931Y2090D02*
X1938Y2090D01*
X1289Y2089D02*
X1296Y2089D01*
X1931Y2089D02*
X1938Y2089D01*
X1289Y2088D02*
X1296Y2088D01*
X1931Y2088D02*
X1938Y2088D01*
X1289Y2087D02*
X1296Y2087D01*
X1931Y2087D02*
X1938Y2087D01*
X1289Y2086D02*
X1296Y2086D01*
X1931Y2086D02*
X1938Y2086D01*
X1289Y2085D02*
X1296Y2085D01*
X1931Y2085D02*
X1938Y2085D01*
X1289Y2084D02*
X1296Y2084D01*
X1931Y2084D02*
X1938Y2084D01*
X1289Y2083D02*
X1296Y2083D01*
X1931Y2083D02*
X1938Y2083D01*
X1289Y2082D02*
X1296Y2082D01*
X1931Y2082D02*
X1938Y2082D01*
X1289Y2081D02*
X1296Y2081D01*
X1931Y2081D02*
X1938Y2081D01*
X1289Y2080D02*
X1296Y2080D01*
X1931Y2080D02*
X1938Y2080D01*
X1289Y2079D02*
X1296Y2079D01*
X1931Y2079D02*
X1938Y2079D01*
X1289Y2078D02*
X1296Y2078D01*
X1931Y2078D02*
X1938Y2078D01*
X1289Y2077D02*
X1296Y2077D01*
X1931Y2077D02*
X1938Y2077D01*
X1289Y2076D02*
X1296Y2076D01*
X1931Y2076D02*
X1938Y2076D01*
X1289Y2075D02*
X1296Y2075D01*
X1931Y2075D02*
X1938Y2075D01*
X1289Y2074D02*
X1296Y2074D01*
X1931Y2074D02*
X1938Y2074D01*
X1289Y2073D02*
X1296Y2073D01*
X1931Y2073D02*
X1938Y2073D01*
X1289Y2072D02*
X1296Y2072D01*
X1931Y2072D02*
X1938Y2072D01*
X1289Y2071D02*
X1296Y2071D01*
X1931Y2071D02*
X1938Y2071D01*
X1289Y2070D02*
X1296Y2070D01*
X1931Y2070D02*
X1938Y2070D01*
X1289Y2069D02*
X1296Y2069D01*
X1931Y2069D02*
X1938Y2069D01*
X1289Y2068D02*
X1296Y2068D01*
X1931Y2068D02*
X1938Y2068D01*
X1289Y2067D02*
X1296Y2067D01*
X1931Y2067D02*
X1938Y2067D01*
X1289Y2066D02*
X1296Y2066D01*
X1931Y2066D02*
X1938Y2066D01*
X1289Y2065D02*
X1296Y2065D01*
X1931Y2065D02*
X1938Y2065D01*
X1289Y2064D02*
X1296Y2064D01*
X1931Y2064D02*
X1938Y2064D01*
X1289Y2063D02*
X1296Y2063D01*
X1931Y2063D02*
X1938Y2063D01*
X1289Y2062D02*
X1296Y2062D01*
X1931Y2062D02*
X1938Y2062D01*
X1289Y2061D02*
X1296Y2061D01*
X1931Y2061D02*
X1938Y2061D01*
X1289Y2060D02*
X1296Y2060D01*
X1931Y2060D02*
X1938Y2060D01*
X1289Y2059D02*
X1296Y2059D01*
X1931Y2059D02*
X1938Y2059D01*
X1289Y2058D02*
X1296Y2058D01*
X1931Y2058D02*
X1938Y2058D01*
X1289Y2057D02*
X1296Y2057D01*
X1931Y2057D02*
X1938Y2057D01*
X1289Y2056D02*
X1296Y2056D01*
X1931Y2056D02*
X1938Y2056D01*
X1289Y2055D02*
X1296Y2055D01*
X1931Y2055D02*
X1938Y2055D01*
X1289Y2054D02*
X1296Y2054D01*
X1931Y2054D02*
X1938Y2054D01*
X1289Y2053D02*
X1296Y2053D01*
X1931Y2053D02*
X1938Y2053D01*
X1289Y2052D02*
X1296Y2052D01*
X1931Y2052D02*
X1938Y2052D01*
X1289Y2051D02*
X1296Y2051D01*
X1931Y2051D02*
X1938Y2051D01*
X1289Y2050D02*
X1296Y2050D01*
X1931Y2050D02*
X1938Y2050D01*
X1289Y2049D02*
X1296Y2049D01*
X1931Y2049D02*
X1938Y2049D01*
X1289Y2048D02*
X1296Y2048D01*
X1931Y2048D02*
X1938Y2048D01*
X1289Y2047D02*
X1296Y2047D01*
X1931Y2047D02*
X1938Y2047D01*
X1289Y2046D02*
X1296Y2046D01*
X1931Y2046D02*
X1938Y2046D01*
X1289Y2045D02*
X1296Y2045D01*
X1931Y2045D02*
X1938Y2045D01*
X1289Y2044D02*
X1296Y2044D01*
X1931Y2044D02*
X1938Y2044D01*
X1289Y2043D02*
X1296Y2043D01*
X1931Y2043D02*
X1938Y2043D01*
X1289Y2042D02*
X1296Y2042D01*
X1931Y2042D02*
X1938Y2042D01*
X1289Y2041D02*
X1296Y2041D01*
X1931Y2041D02*
X1938Y2041D01*
X1289Y2040D02*
X1296Y2040D01*
X1931Y2040D02*
X1938Y2040D01*
X1289Y2039D02*
X1296Y2039D01*
X1931Y2039D02*
X1938Y2039D01*
X1289Y2038D02*
X1296Y2038D01*
X1931Y2038D02*
X1938Y2038D01*
X1289Y2037D02*
X1296Y2037D01*
X1931Y2037D02*
X1938Y2037D01*
X1289Y2036D02*
X1296Y2036D01*
X1931Y2036D02*
X1938Y2036D01*
X1289Y2035D02*
X1296Y2035D01*
X1931Y2035D02*
X1938Y2035D01*
X1289Y2034D02*
X1296Y2034D01*
X1931Y2034D02*
X1938Y2034D01*
X1289Y2033D02*
X1296Y2033D01*
X1931Y2033D02*
X1938Y2033D01*
X1289Y2032D02*
X1296Y2032D01*
X1931Y2032D02*
X1938Y2032D01*
X1289Y2031D02*
X1296Y2031D01*
X1931Y2031D02*
X1938Y2031D01*
X1289Y2030D02*
X1296Y2030D01*
X1931Y2030D02*
X1938Y2030D01*
X1289Y2029D02*
X1296Y2029D01*
X1931Y2029D02*
X1938Y2029D01*
X1289Y2028D02*
X1296Y2028D01*
X1931Y2028D02*
X1938Y2028D01*
X1289Y2027D02*
X1296Y2027D01*
X1931Y2027D02*
X1938Y2027D01*
X1289Y2026D02*
X1296Y2026D01*
X1931Y2026D02*
X1938Y2026D01*
X1289Y2025D02*
X1296Y2025D01*
X1931Y2025D02*
X1938Y2025D01*
X1289Y2024D02*
X1296Y2024D01*
X1931Y2024D02*
X1938Y2024D01*
X1289Y2023D02*
X1296Y2023D01*
X1931Y2023D02*
X1938Y2023D01*
X1289Y2022D02*
X1296Y2022D01*
X1931Y2022D02*
X1938Y2022D01*
X1289Y2021D02*
X1296Y2021D01*
X1931Y2021D02*
X1938Y2021D01*
X1289Y2020D02*
X1296Y2020D01*
X1931Y2020D02*
X1938Y2020D01*
X1289Y2019D02*
X1296Y2019D01*
X1931Y2019D02*
X1938Y2019D01*
X1289Y2018D02*
X1296Y2018D01*
X1931Y2018D02*
X1938Y2018D01*
X1289Y2017D02*
X1296Y2017D01*
X1931Y2017D02*
X1938Y2017D01*
X1289Y2016D02*
X1296Y2016D01*
X1931Y2016D02*
X1938Y2016D01*
X1289Y2015D02*
X1296Y2015D01*
X1931Y2015D02*
X1938Y2015D01*
X1289Y2014D02*
X1296Y2014D01*
X1931Y2014D02*
X1938Y2014D01*
X1289Y2013D02*
X1296Y2013D01*
X1931Y2013D02*
X1938Y2013D01*
X1289Y2012D02*
X1296Y2012D01*
X1931Y2012D02*
X1938Y2012D01*
X1289Y2011D02*
X1296Y2011D01*
X1931Y2011D02*
X1938Y2011D01*
X1289Y2010D02*
X1296Y2010D01*
X1931Y2010D02*
X1938Y2010D01*
X1289Y2009D02*
X1296Y2009D01*
X1931Y2009D02*
X1938Y2009D01*
X1289Y2008D02*
X1296Y2008D01*
X1931Y2008D02*
X1938Y2008D01*
X1289Y2007D02*
X1296Y2007D01*
X1931Y2007D02*
X1938Y2007D01*
X1289Y2006D02*
X1296Y2006D01*
X1931Y2006D02*
X1938Y2006D01*
X1289Y2005D02*
X1296Y2005D01*
X1931Y2005D02*
X1938Y2005D01*
X1289Y2004D02*
X1296Y2004D01*
X1931Y2004D02*
X1938Y2004D01*
X1289Y2003D02*
X1296Y2003D01*
X1931Y2003D02*
X1938Y2003D01*
X1289Y2002D02*
X1296Y2002D01*
X1931Y2002D02*
X1938Y2002D01*
X1289Y2001D02*
X1296Y2001D01*
X1931Y2001D02*
X1938Y2001D01*
X1289Y2000D02*
X1296Y2000D01*
X1931Y2000D02*
X1938Y2000D01*
X1289Y1999D02*
X1296Y1999D01*
X1931Y1999D02*
X1938Y1999D01*
X1289Y1998D02*
X1296Y1998D01*
X1931Y1998D02*
X1938Y1998D01*
X1289Y1997D02*
X1296Y1997D01*
X1931Y1997D02*
X1938Y1997D01*
X1289Y1996D02*
X1296Y1996D01*
X1931Y1996D02*
X1938Y1996D01*
X1289Y1995D02*
X1296Y1995D01*
X1931Y1995D02*
X1938Y1995D01*
X1289Y1994D02*
X1296Y1994D01*
X1931Y1994D02*
X1938Y1994D01*
X1289Y1993D02*
X1296Y1993D01*
X1931Y1993D02*
X1938Y1993D01*
X1289Y1992D02*
X1296Y1992D01*
X1931Y1992D02*
X1938Y1992D01*
X1289Y1991D02*
X1296Y1991D01*
X1931Y1991D02*
X1938Y1991D01*
X1289Y1990D02*
X1296Y1990D01*
X1931Y1990D02*
X1938Y1990D01*
X1289Y1989D02*
X1296Y1989D01*
X1931Y1989D02*
X1938Y1989D01*
X1289Y1988D02*
X1296Y1988D01*
X1931Y1988D02*
X1938Y1988D01*
X1289Y1987D02*
X1296Y1987D01*
X1931Y1987D02*
X1938Y1987D01*
X1289Y1986D02*
X1296Y1986D01*
X1931Y1986D02*
X1938Y1986D01*
X1289Y1985D02*
X1296Y1985D01*
X1931Y1985D02*
X1938Y1985D01*
X1289Y1984D02*
X1296Y1984D01*
X1931Y1984D02*
X1938Y1984D01*
X1289Y1983D02*
X1296Y1983D01*
X1931Y1983D02*
X1938Y1983D01*
X1289Y1982D02*
X1296Y1982D01*
X1931Y1982D02*
X1938Y1982D01*
X1289Y1981D02*
X1296Y1981D01*
X1931Y1981D02*
X1938Y1981D01*
X1289Y1980D02*
X1296Y1980D01*
X1931Y1980D02*
X1938Y1980D01*
X1289Y1979D02*
X1296Y1979D01*
X1931Y1979D02*
X1938Y1979D01*
X1289Y1978D02*
X1296Y1978D01*
X1931Y1978D02*
X1938Y1978D01*
X1289Y1977D02*
X1296Y1977D01*
X1931Y1977D02*
X1938Y1977D01*
X1289Y1976D02*
X1296Y1976D01*
X1931Y1976D02*
X1938Y1976D01*
X1289Y1975D02*
X1296Y1975D01*
X1931Y1975D02*
X1938Y1975D01*
X1289Y1974D02*
X1296Y1974D01*
X1931Y1974D02*
X1938Y1974D01*
X1289Y1973D02*
X1296Y1973D01*
X1931Y1973D02*
X1938Y1973D01*
X1289Y1972D02*
X1296Y1972D01*
X1931Y1972D02*
X1938Y1972D01*
X1289Y1971D02*
X1296Y1971D01*
X1931Y1971D02*
X1938Y1971D01*
X1289Y1970D02*
X1296Y1970D01*
X1931Y1970D02*
X1938Y1970D01*
X1289Y1969D02*
X1296Y1969D01*
X1931Y1969D02*
X1938Y1969D01*
X1289Y1968D02*
X1296Y1968D01*
X1931Y1968D02*
X1938Y1968D01*
X1289Y1967D02*
X1296Y1967D01*
X1931Y1967D02*
X1938Y1967D01*
X1289Y1966D02*
X1296Y1966D01*
X1931Y1966D02*
X1938Y1966D01*
X1289Y1965D02*
X1296Y1965D01*
X1931Y1965D02*
X1938Y1965D01*
X1289Y1964D02*
X1296Y1964D01*
X1931Y1964D02*
X1938Y1964D01*
X1289Y1963D02*
X1296Y1963D01*
X1931Y1963D02*
X1938Y1963D01*
X1289Y1962D02*
X1296Y1962D01*
X1931Y1962D02*
X1938Y1962D01*
X1289Y1961D02*
X1296Y1961D01*
X1931Y1961D02*
X1938Y1961D01*
X1289Y1960D02*
X1296Y1960D01*
X1931Y1960D02*
X1938Y1960D01*
X1289Y1959D02*
X1296Y1959D01*
X1931Y1959D02*
X1938Y1959D01*
X1289Y1958D02*
X1296Y1958D01*
X1931Y1958D02*
X1938Y1958D01*
X1289Y1957D02*
X1296Y1957D01*
X1931Y1957D02*
X1938Y1957D01*
X1289Y1956D02*
X1296Y1956D01*
X1931Y1956D02*
X1938Y1956D01*
X1289Y1955D02*
X1296Y1955D01*
X1931Y1955D02*
X1938Y1955D01*
X1289Y1954D02*
X1296Y1954D01*
X1931Y1954D02*
X1938Y1954D01*
X1289Y1953D02*
X1296Y1953D01*
X1931Y1953D02*
X1938Y1953D01*
X1289Y1952D02*
X1296Y1952D01*
X1931Y1952D02*
X1938Y1952D01*
X1289Y1951D02*
X1296Y1951D01*
X1931Y1951D02*
X1938Y1951D01*
X1289Y1950D02*
X1296Y1950D01*
X1931Y1950D02*
X1938Y1950D01*
X1289Y1949D02*
X1296Y1949D01*
X1931Y1949D02*
X1938Y1949D01*
X1289Y1948D02*
X1296Y1948D01*
X1931Y1948D02*
X1938Y1948D01*
X1289Y1947D02*
X1296Y1947D01*
X1931Y1947D02*
X1938Y1947D01*
X1289Y1946D02*
X1296Y1946D01*
X1931Y1946D02*
X1938Y1946D01*
X1289Y1945D02*
X1296Y1945D01*
X1931Y1945D02*
X1938Y1945D01*
X1289Y1944D02*
X1296Y1944D01*
X1931Y1944D02*
X1938Y1944D01*
X1289Y1943D02*
X1296Y1943D01*
X1931Y1943D02*
X1938Y1943D01*
X1289Y1942D02*
X1296Y1942D01*
X1931Y1942D02*
X1938Y1942D01*
X1289Y1941D02*
X1296Y1941D01*
X1931Y1941D02*
X1938Y1941D01*
X1289Y1940D02*
X1296Y1940D01*
X1931Y1940D02*
X1938Y1940D01*
X1289Y1939D02*
X1296Y1939D01*
X1931Y1939D02*
X1938Y1939D01*
X1289Y1938D02*
X1296Y1938D01*
X1931Y1938D02*
X1938Y1938D01*
X1289Y1937D02*
X1296Y1937D01*
X1931Y1937D02*
X1938Y1937D01*
X1289Y1936D02*
X1296Y1936D01*
X1931Y1936D02*
X1938Y1936D01*
X1289Y1935D02*
X1296Y1935D01*
X1931Y1935D02*
X1938Y1935D01*
X1289Y1934D02*
X1296Y1934D01*
X1931Y1934D02*
X1938Y1934D01*
X1289Y1933D02*
X1296Y1933D01*
X1931Y1933D02*
X1938Y1933D01*
X1289Y1932D02*
X1296Y1932D01*
X1931Y1932D02*
X1938Y1932D01*
X1289Y1931D02*
X1296Y1931D01*
X1931Y1931D02*
X1938Y1931D01*
X1289Y1930D02*
X1296Y1930D01*
X1931Y1930D02*
X1938Y1930D01*
X1289Y1929D02*
X1296Y1929D01*
X1931Y1929D02*
X1938Y1929D01*
X1289Y1928D02*
X1296Y1928D01*
X1931Y1928D02*
X1938Y1928D01*
X1289Y1927D02*
X1296Y1927D01*
X1931Y1927D02*
X1938Y1927D01*
X1289Y1926D02*
X1296Y1926D01*
X1931Y1926D02*
X1938Y1926D01*
X1289Y1925D02*
X1296Y1925D01*
X1931Y1925D02*
X1938Y1925D01*
X1289Y1924D02*
X1296Y1924D01*
X1931Y1924D02*
X1938Y1924D01*
X1289Y1923D02*
X1296Y1923D01*
X1931Y1923D02*
X1938Y1923D01*
X1289Y1922D02*
X1296Y1922D01*
X1931Y1922D02*
X1938Y1922D01*
X1289Y1921D02*
X1296Y1921D01*
X1931Y1921D02*
X1938Y1921D01*
X1289Y1920D02*
X1296Y1920D01*
X1931Y1920D02*
X1938Y1920D01*
X1289Y1919D02*
X1296Y1919D01*
X1931Y1919D02*
X1938Y1919D01*
X1289Y1918D02*
X1296Y1918D01*
X1931Y1918D02*
X1938Y1918D01*
X1289Y1917D02*
X1296Y1917D01*
X1931Y1917D02*
X1938Y1917D01*
X1289Y1916D02*
X1296Y1916D01*
X1931Y1916D02*
X1938Y1916D01*
X1289Y1915D02*
X1296Y1915D01*
X1931Y1915D02*
X1938Y1915D01*
X1289Y1914D02*
X1296Y1914D01*
X1931Y1914D02*
X1938Y1914D01*
X1289Y1913D02*
X1296Y1913D01*
X1931Y1913D02*
X1938Y1913D01*
X1289Y1912D02*
X1296Y1912D01*
X1931Y1912D02*
X1938Y1912D01*
X1289Y1911D02*
X1296Y1911D01*
X1931Y1911D02*
X1938Y1911D01*
X1289Y1910D02*
X1296Y1910D01*
X1931Y1910D02*
X1938Y1910D01*
X1289Y1909D02*
X1296Y1909D01*
X1931Y1909D02*
X1938Y1909D01*
X1289Y1908D02*
X1296Y1908D01*
X1931Y1908D02*
X1938Y1908D01*
X1289Y1907D02*
X1296Y1907D01*
X1931Y1907D02*
X1938Y1907D01*
X1289Y1906D02*
X1296Y1906D01*
X1931Y1906D02*
X1938Y1906D01*
X1289Y1905D02*
X1296Y1905D01*
X1931Y1905D02*
X1938Y1905D01*
X1289Y1904D02*
X1296Y1904D01*
X1931Y1904D02*
X1938Y1904D01*
X1289Y1903D02*
X1296Y1903D01*
X1931Y1903D02*
X1938Y1903D01*
X1289Y1902D02*
X1296Y1902D01*
X1931Y1902D02*
X1938Y1902D01*
X1289Y1901D02*
X1296Y1901D01*
X1931Y1901D02*
X1938Y1901D01*
X1289Y1900D02*
X1296Y1900D01*
X1931Y1900D02*
X1938Y1900D01*
X1289Y1899D02*
X1296Y1899D01*
X1931Y1899D02*
X1938Y1899D01*
X1289Y1898D02*
X1296Y1898D01*
X1931Y1898D02*
X1938Y1898D01*
X1289Y1897D02*
X1296Y1897D01*
X1931Y1897D02*
X1938Y1897D01*
X1289Y1896D02*
X1296Y1896D01*
X1931Y1896D02*
X1938Y1896D01*
X1289Y1895D02*
X1296Y1895D01*
X1931Y1895D02*
X1938Y1895D01*
X1289Y1894D02*
X1296Y1894D01*
X1931Y1894D02*
X1938Y1894D01*
X1289Y1893D02*
X1296Y1893D01*
X1931Y1893D02*
X1938Y1893D01*
X1289Y1892D02*
X1296Y1892D01*
X1931Y1892D02*
X1938Y1892D01*
X1289Y1891D02*
X1296Y1891D01*
X1931Y1891D02*
X1938Y1891D01*
X1289Y1890D02*
X1296Y1890D01*
X1931Y1890D02*
X1938Y1890D01*
X1289Y1889D02*
X1296Y1889D01*
X1931Y1889D02*
X1938Y1889D01*
X1289Y1888D02*
X1296Y1888D01*
X1931Y1888D02*
X1938Y1888D01*
X1289Y1887D02*
X1296Y1887D01*
X1931Y1887D02*
X1938Y1887D01*
X1289Y1886D02*
X1296Y1886D01*
X1931Y1886D02*
X1938Y1886D01*
X1289Y1885D02*
X1296Y1885D01*
X1931Y1885D02*
X1938Y1885D01*
X1289Y1884D02*
X1296Y1884D01*
X1931Y1884D02*
X1938Y1884D01*
X1289Y1883D02*
X1296Y1883D01*
X1931Y1883D02*
X1938Y1883D01*
X1289Y1882D02*
X1296Y1882D01*
X1931Y1882D02*
X1938Y1882D01*
X1289Y1881D02*
X1296Y1881D01*
X1931Y1881D02*
X1938Y1881D01*
X1289Y1880D02*
X1296Y1880D01*
X1931Y1880D02*
X1938Y1880D01*
X1289Y1879D02*
X1296Y1879D01*
X1931Y1879D02*
X1938Y1879D01*
X1289Y1878D02*
X1296Y1878D01*
X1931Y1878D02*
X1938Y1878D01*
X1289Y1877D02*
X1296Y1877D01*
X1931Y1877D02*
X1938Y1877D01*
X1289Y1876D02*
X1296Y1876D01*
X1931Y1876D02*
X1938Y1876D01*
X1289Y1875D02*
X1296Y1875D01*
X1931Y1875D02*
X1938Y1875D01*
X1289Y1874D02*
X1296Y1874D01*
X1931Y1874D02*
X1938Y1874D01*
X1289Y1873D02*
X1296Y1873D01*
X1931Y1873D02*
X1938Y1873D01*
X1289Y1872D02*
X1296Y1872D01*
X1931Y1872D02*
X1938Y1872D01*
X1289Y1871D02*
X1296Y1871D01*
X1931Y1871D02*
X1938Y1871D01*
X1289Y1870D02*
X1296Y1870D01*
X1931Y1870D02*
X1938Y1870D01*
X1289Y1869D02*
X1296Y1869D01*
X1931Y1869D02*
X1938Y1869D01*
X1289Y1868D02*
X1296Y1868D01*
X1931Y1868D02*
X1938Y1868D01*
X1289Y1867D02*
X1296Y1867D01*
X1931Y1867D02*
X1938Y1867D01*
X1289Y1866D02*
X1296Y1866D01*
X1931Y1866D02*
X1938Y1866D01*
X1289Y1865D02*
X1296Y1865D01*
X1931Y1865D02*
X1938Y1865D01*
X1289Y1864D02*
X1296Y1864D01*
X1931Y1864D02*
X1938Y1864D01*
X1289Y1863D02*
X1296Y1863D01*
X1931Y1863D02*
X1938Y1863D01*
X1289Y1862D02*
X1296Y1862D01*
X1931Y1862D02*
X1938Y1862D01*
X1289Y1861D02*
X1296Y1861D01*
X1931Y1861D02*
X1938Y1861D01*
X1289Y1860D02*
X1296Y1860D01*
X1931Y1860D02*
X1938Y1860D01*
X1289Y1859D02*
X1296Y1859D01*
X1931Y1859D02*
X1938Y1859D01*
X1289Y1858D02*
X1296Y1858D01*
X1931Y1858D02*
X1938Y1858D01*
X1289Y1857D02*
X1296Y1857D01*
X1931Y1857D02*
X1938Y1857D01*
X1289Y1856D02*
X1296Y1856D01*
X1931Y1856D02*
X1938Y1856D01*
X1289Y1855D02*
X1296Y1855D01*
X1931Y1855D02*
X1938Y1855D01*
X1289Y1854D02*
X1296Y1854D01*
X1931Y1854D02*
X1938Y1854D01*
X1289Y1853D02*
X1296Y1853D01*
X1931Y1853D02*
X1938Y1853D01*
X1289Y1852D02*
X1296Y1852D01*
X1931Y1852D02*
X1938Y1852D01*
X1289Y1851D02*
X1296Y1851D01*
X1931Y1851D02*
X1938Y1851D01*
X1289Y1850D02*
X1296Y1850D01*
X1931Y1850D02*
X1938Y1850D01*
X1289Y1849D02*
X1296Y1849D01*
X1931Y1849D02*
X1938Y1849D01*
X1289Y1848D02*
X1296Y1848D01*
X1931Y1848D02*
X1938Y1848D01*
X1289Y1847D02*
X1296Y1847D01*
X1931Y1847D02*
X1938Y1847D01*
X1289Y1846D02*
X1296Y1846D01*
X1931Y1846D02*
X1938Y1846D01*
X1289Y1845D02*
X1296Y1845D01*
X1931Y1845D02*
X1938Y1845D01*
X1289Y1844D02*
X1296Y1844D01*
X1931Y1844D02*
X1938Y1844D01*
X1289Y1843D02*
X1296Y1843D01*
X1931Y1843D02*
X1938Y1843D01*
X1289Y1842D02*
X1296Y1842D01*
X1931Y1842D02*
X1938Y1842D01*
X1289Y1841D02*
X1296Y1841D01*
X1931Y1841D02*
X1938Y1841D01*
X1289Y1840D02*
X1296Y1840D01*
X1931Y1840D02*
X1938Y1840D01*
X1289Y1839D02*
X1296Y1839D01*
X1931Y1839D02*
X1938Y1839D01*
X1289Y1838D02*
X1296Y1838D01*
X1931Y1838D02*
X1938Y1838D01*
X1289Y1837D02*
X1296Y1837D01*
X1931Y1837D02*
X1938Y1837D01*
X1289Y1836D02*
X1296Y1836D01*
X1931Y1836D02*
X1938Y1836D01*
X1289Y1835D02*
X1296Y1835D01*
X1931Y1835D02*
X1938Y1835D01*
X1289Y1834D02*
X1296Y1834D01*
X1931Y1834D02*
X1938Y1834D01*
X1289Y1833D02*
X1296Y1833D01*
X1931Y1833D02*
X1938Y1833D01*
X1289Y1832D02*
X1296Y1832D01*
X1931Y1832D02*
X1938Y1832D01*
X1289Y1831D02*
X1296Y1831D01*
X1931Y1831D02*
X1938Y1831D01*
X1289Y1830D02*
X1296Y1830D01*
X1931Y1830D02*
X1938Y1830D01*
X1289Y1829D02*
X1296Y1829D01*
X1931Y1829D02*
X1938Y1829D01*
X1289Y1828D02*
X1296Y1828D01*
X1931Y1828D02*
X1938Y1828D01*
X1289Y1827D02*
X1296Y1827D01*
X1931Y1827D02*
X1938Y1827D01*
X1289Y1826D02*
X1296Y1826D01*
X1931Y1826D02*
X1938Y1826D01*
X1289Y1825D02*
X1296Y1825D01*
X1931Y1825D02*
X1938Y1825D01*
X1289Y1824D02*
X1296Y1824D01*
X1931Y1824D02*
X1938Y1824D01*
X1289Y1823D02*
X1296Y1823D01*
X1931Y1823D02*
X1938Y1823D01*
X1289Y1822D02*
X1296Y1822D01*
X1931Y1822D02*
X1938Y1822D01*
X1289Y1821D02*
X1296Y1821D01*
X1931Y1821D02*
X1938Y1821D01*
X1289Y1820D02*
X1296Y1820D01*
X1931Y1820D02*
X1938Y1820D01*
X1289Y1819D02*
X1296Y1819D01*
X1931Y1819D02*
X1938Y1819D01*
X1289Y1818D02*
X1296Y1818D01*
X1931Y1818D02*
X1938Y1818D01*
X1289Y1817D02*
X1296Y1817D01*
X1931Y1817D02*
X1938Y1817D01*
X1289Y1816D02*
X1296Y1816D01*
X1931Y1816D02*
X1938Y1816D01*
X1289Y1815D02*
X1296Y1815D01*
X1931Y1815D02*
X1938Y1815D01*
X1289Y1814D02*
X1296Y1814D01*
X1931Y1814D02*
X1938Y1814D01*
X1289Y1813D02*
X1296Y1813D01*
X1931Y1813D02*
X1938Y1813D01*
X1289Y1812D02*
X1296Y1812D01*
X1931Y1812D02*
X1938Y1812D01*
X1289Y1811D02*
X1296Y1811D01*
X1931Y1811D02*
X1938Y1811D01*
X1289Y1810D02*
X1296Y1810D01*
X1931Y1810D02*
X1938Y1810D01*
X1289Y1809D02*
X1296Y1809D01*
X1931Y1809D02*
X1938Y1809D01*
X1289Y1808D02*
X1296Y1808D01*
X1931Y1808D02*
X1938Y1808D01*
X1289Y1807D02*
X1296Y1807D01*
X1931Y1807D02*
X1938Y1807D01*
X1289Y1806D02*
X1296Y1806D01*
X1931Y1806D02*
X1938Y1806D01*
X1289Y1805D02*
X1296Y1805D01*
X1931Y1805D02*
X1938Y1805D01*
X1289Y1804D02*
X1296Y1804D01*
X1931Y1804D02*
X1938Y1804D01*
X1289Y1803D02*
X1296Y1803D01*
X1931Y1803D02*
X1938Y1803D01*
X1289Y1802D02*
X1296Y1802D01*
X1931Y1802D02*
X1938Y1802D01*
X1289Y1801D02*
X1296Y1801D01*
X1931Y1801D02*
X1938Y1801D01*
X1289Y1800D02*
X1296Y1800D01*
X1931Y1800D02*
X1938Y1800D01*
X1289Y1799D02*
X1296Y1799D01*
X1931Y1799D02*
X1938Y1799D01*
X1289Y1798D02*
X1296Y1798D01*
X1931Y1798D02*
X1938Y1798D01*
X1289Y1797D02*
X1296Y1797D01*
X1931Y1797D02*
X1938Y1797D01*
X1289Y1796D02*
X1296Y1796D01*
X1931Y1796D02*
X1938Y1796D01*
X1289Y1795D02*
X1296Y1795D01*
X1931Y1795D02*
X1938Y1795D01*
X1289Y1794D02*
X1296Y1794D01*
X1931Y1794D02*
X1938Y1794D01*
X1289Y1793D02*
X1296Y1793D01*
X1931Y1793D02*
X1938Y1793D01*
X1289Y1792D02*
X1296Y1792D01*
X1931Y1792D02*
X1938Y1792D01*
X1289Y1791D02*
X1296Y1791D01*
X1931Y1791D02*
X1938Y1791D01*
X1289Y1790D02*
X1296Y1790D01*
X1931Y1790D02*
X1938Y1790D01*
X1289Y1789D02*
X1296Y1789D01*
X1931Y1789D02*
X1938Y1789D01*
X1289Y1788D02*
X1296Y1788D01*
X1931Y1788D02*
X1938Y1788D01*
X1289Y1787D02*
X1296Y1787D01*
X1931Y1787D02*
X1938Y1787D01*
X1289Y1786D02*
X1296Y1786D01*
X1931Y1786D02*
X1938Y1786D01*
X1289Y1785D02*
X1296Y1785D01*
X1931Y1785D02*
X1938Y1785D01*
X1289Y1784D02*
X1296Y1784D01*
X1931Y1784D02*
X1938Y1784D01*
X1289Y1783D02*
X1296Y1783D01*
X1931Y1783D02*
X1938Y1783D01*
X1289Y1782D02*
X1296Y1782D01*
X1931Y1782D02*
X1938Y1782D01*
X1289Y1781D02*
X1296Y1781D01*
X1931Y1781D02*
X1938Y1781D01*
X1289Y1780D02*
X1296Y1780D01*
X1931Y1780D02*
X1938Y1780D01*
X1289Y1779D02*
X1296Y1779D01*
X1931Y1779D02*
X1938Y1779D01*
X1289Y1778D02*
X1296Y1778D01*
X1931Y1778D02*
X1938Y1778D01*
X1289Y1777D02*
X1296Y1777D01*
X1931Y1777D02*
X1938Y1777D01*
X1289Y1776D02*
X1296Y1776D01*
X1931Y1776D02*
X1938Y1776D01*
X1289Y1775D02*
X1296Y1775D01*
X1931Y1775D02*
X1938Y1775D01*
X1289Y1774D02*
X1296Y1774D01*
X1931Y1774D02*
X1938Y1774D01*
X1289Y1773D02*
X1296Y1773D01*
X1931Y1773D02*
X1938Y1773D01*
X1289Y1772D02*
X1296Y1772D01*
X1931Y1772D02*
X1938Y1772D01*
X1289Y1771D02*
X1296Y1771D01*
X1931Y1771D02*
X1938Y1771D01*
X1289Y1770D02*
X1296Y1770D01*
X1931Y1770D02*
X1938Y1770D01*
X1289Y1769D02*
X1296Y1769D01*
X1931Y1769D02*
X1938Y1769D01*
X1289Y1768D02*
X1296Y1768D01*
X1931Y1768D02*
X1938Y1768D01*
X1289Y1767D02*
X1296Y1767D01*
X1931Y1767D02*
X1938Y1767D01*
X1289Y1766D02*
X1296Y1766D01*
X1931Y1766D02*
X1938Y1766D01*
X1289Y1765D02*
X1296Y1765D01*
X1931Y1765D02*
X1938Y1765D01*
X1289Y1764D02*
X1296Y1764D01*
X1931Y1764D02*
X1938Y1764D01*
X1289Y1763D02*
X1296Y1763D01*
X1931Y1763D02*
X1938Y1763D01*
X1289Y1762D02*
X1296Y1762D01*
X1931Y1762D02*
X1938Y1762D01*
X1289Y1761D02*
X1296Y1761D01*
X1931Y1761D02*
X1938Y1761D01*
X1289Y1760D02*
X1296Y1760D01*
X1931Y1760D02*
X1938Y1760D01*
X1289Y1759D02*
X1296Y1759D01*
X1931Y1759D02*
X1938Y1759D01*
X1289Y1758D02*
X1296Y1758D01*
X1931Y1758D02*
X1938Y1758D01*
X1289Y1757D02*
X1296Y1757D01*
X1931Y1757D02*
X1938Y1757D01*
X1289Y1756D02*
X1296Y1756D01*
X1931Y1756D02*
X1938Y1756D01*
X1289Y1755D02*
X1296Y1755D01*
X1931Y1755D02*
X1938Y1755D01*
X1289Y1754D02*
X1296Y1754D01*
X1931Y1754D02*
X1938Y1754D01*
X1289Y1753D02*
X1296Y1753D01*
X1931Y1753D02*
X1938Y1753D01*
X1289Y1752D02*
X1296Y1752D01*
X1931Y1752D02*
X1938Y1752D01*
X1289Y1751D02*
X1296Y1751D01*
X1931Y1751D02*
X1938Y1751D01*
X1289Y1750D02*
X1296Y1750D01*
X1931Y1750D02*
X1938Y1750D01*
X1289Y1749D02*
X1296Y1749D01*
X1931Y1749D02*
X1938Y1749D01*
X1289Y1748D02*
X1296Y1748D01*
X1931Y1748D02*
X1938Y1748D01*
X1289Y1747D02*
X1296Y1747D01*
X1931Y1747D02*
X1938Y1747D01*
X1289Y1746D02*
X1296Y1746D01*
X1931Y1746D02*
X1938Y1746D01*
X1289Y1745D02*
X1296Y1745D01*
X1931Y1745D02*
X1938Y1745D01*
X1289Y1744D02*
X1296Y1744D01*
X1931Y1744D02*
X1938Y1744D01*
X1289Y1743D02*
X1296Y1743D01*
X1931Y1743D02*
X1938Y1743D01*
X1289Y1742D02*
X1296Y1742D01*
X1931Y1742D02*
X1938Y1742D01*
X1289Y1741D02*
X1296Y1741D01*
X1931Y1741D02*
X1938Y1741D01*
X1289Y1740D02*
X1296Y1740D01*
X1931Y1740D02*
X1938Y1740D01*
X1289Y1739D02*
X1296Y1739D01*
X1931Y1739D02*
X1938Y1739D01*
X1289Y1738D02*
X1296Y1738D01*
X1931Y1738D02*
X1938Y1738D01*
X1289Y1737D02*
X1296Y1737D01*
X1931Y1737D02*
X1938Y1737D01*
X1289Y1736D02*
X1296Y1736D01*
X1931Y1736D02*
X1938Y1736D01*
X1289Y1735D02*
X1296Y1735D01*
X1931Y1735D02*
X1938Y1735D01*
X1289Y1734D02*
X1296Y1734D01*
X1931Y1734D02*
X1938Y1734D01*
X1289Y1733D02*
X1296Y1733D01*
X1931Y1733D02*
X1938Y1733D01*
X1289Y1732D02*
X1296Y1732D01*
X1931Y1732D02*
X1938Y1732D01*
X1289Y1731D02*
X1296Y1731D01*
X1931Y1731D02*
X1938Y1731D01*
X1289Y1730D02*
X1296Y1730D01*
X1931Y1730D02*
X1938Y1730D01*
X1289Y1729D02*
X1296Y1729D01*
X1931Y1729D02*
X1938Y1729D01*
X1289Y1728D02*
X1296Y1728D01*
X1931Y1728D02*
X1938Y1728D01*
X1289Y1727D02*
X1296Y1727D01*
X1931Y1727D02*
X1938Y1727D01*
X1289Y1726D02*
X1296Y1726D01*
X1931Y1726D02*
X1938Y1726D01*
X1289Y1725D02*
X1296Y1725D01*
X1931Y1725D02*
X1938Y1725D01*
X1289Y1724D02*
X1296Y1724D01*
X1931Y1724D02*
X1938Y1724D01*
X1289Y1723D02*
X1296Y1723D01*
X1931Y1723D02*
X1938Y1723D01*
X1289Y1722D02*
X1296Y1722D01*
X1931Y1722D02*
X1938Y1722D01*
X1289Y1721D02*
X1296Y1721D01*
X1931Y1721D02*
X1938Y1721D01*
X1289Y1720D02*
X1296Y1720D01*
X1931Y1720D02*
X1938Y1720D01*
X1289Y1719D02*
X1296Y1719D01*
X1931Y1719D02*
X1938Y1719D01*
X1289Y1718D02*
X1296Y1718D01*
X1931Y1718D02*
X1938Y1718D01*
X1289Y1717D02*
X1296Y1717D01*
X1931Y1717D02*
X1938Y1717D01*
X1289Y1716D02*
X1296Y1716D01*
X1931Y1716D02*
X1938Y1716D01*
X1289Y1715D02*
X1296Y1715D01*
X1931Y1715D02*
X1938Y1715D01*
X1289Y1714D02*
X1296Y1714D01*
X1931Y1714D02*
X1938Y1714D01*
X1289Y1713D02*
X1296Y1713D01*
X1931Y1713D02*
X1938Y1713D01*
X1289Y1712D02*
X1296Y1712D01*
X1931Y1712D02*
X1938Y1712D01*
X1289Y1711D02*
X1296Y1711D01*
X1931Y1711D02*
X1938Y1711D01*
X1289Y1710D02*
X1296Y1710D01*
X1931Y1710D02*
X1938Y1710D01*
X1289Y1709D02*
X1296Y1709D01*
X1931Y1709D02*
X1938Y1709D01*
X1289Y1708D02*
X1296Y1708D01*
X1931Y1708D02*
X1938Y1708D01*
X1289Y1707D02*
X1296Y1707D01*
X1931Y1707D02*
X1938Y1707D01*
X1289Y1706D02*
X1296Y1706D01*
X1931Y1706D02*
X1938Y1706D01*
X1289Y1705D02*
X1296Y1705D01*
X1931Y1705D02*
X1938Y1705D01*
X1289Y1704D02*
X1296Y1704D01*
X1931Y1704D02*
X1938Y1704D01*
X1289Y1703D02*
X1296Y1703D01*
X1931Y1703D02*
X1938Y1703D01*
X1289Y1702D02*
X1296Y1702D01*
X1931Y1702D02*
X1938Y1702D01*
X1289Y1701D02*
X1296Y1701D01*
X1931Y1701D02*
X1938Y1701D01*
X1289Y1700D02*
X1296Y1700D01*
X1931Y1700D02*
X1938Y1700D01*
X1289Y1699D02*
X1296Y1699D01*
X1931Y1699D02*
X1938Y1699D01*
X1289Y1698D02*
X1296Y1698D01*
X1931Y1698D02*
X1938Y1698D01*
X1289Y1697D02*
X1296Y1697D01*
X1931Y1697D02*
X1938Y1697D01*
X1289Y1696D02*
X1296Y1696D01*
X1931Y1696D02*
X1938Y1696D01*
X1289Y1695D02*
X1296Y1695D01*
X1931Y1695D02*
X1938Y1695D01*
X1289Y1694D02*
X1296Y1694D01*
X1931Y1694D02*
X1938Y1694D01*
X1289Y1693D02*
X1296Y1693D01*
X1931Y1693D02*
X1938Y1693D01*
X1289Y1692D02*
X1296Y1692D01*
X1931Y1692D02*
X1938Y1692D01*
X1289Y1691D02*
X1296Y1691D01*
X1931Y1691D02*
X1938Y1691D01*
X1289Y1690D02*
X1296Y1690D01*
X1931Y1690D02*
X1938Y1690D01*
X1289Y1689D02*
X1296Y1689D01*
X1931Y1689D02*
X1938Y1689D01*
X1289Y1688D02*
X1296Y1688D01*
X1931Y1688D02*
X1938Y1688D01*
X1289Y1687D02*
X1296Y1687D01*
X1931Y1687D02*
X1938Y1687D01*
X1289Y1686D02*
X1296Y1686D01*
X1931Y1686D02*
X1938Y1686D01*
X1289Y1685D02*
X1296Y1685D01*
X1931Y1685D02*
X1938Y1685D01*
X1289Y1684D02*
X1296Y1684D01*
X1931Y1684D02*
X1938Y1684D01*
X1289Y1683D02*
X1296Y1683D01*
X1931Y1683D02*
X1938Y1683D01*
X1289Y1682D02*
X1296Y1682D01*
X1931Y1682D02*
X1938Y1682D01*
X1289Y1681D02*
X1296Y1681D01*
X1931Y1681D02*
X1938Y1681D01*
X1289Y1680D02*
X1296Y1680D01*
X1931Y1680D02*
X1938Y1680D01*
X1289Y1679D02*
X1296Y1679D01*
X1931Y1679D02*
X1938Y1679D01*
X1289Y1678D02*
X1296Y1678D01*
X1931Y1678D02*
X1938Y1678D01*
X1289Y1677D02*
X1296Y1677D01*
X1931Y1677D02*
X1938Y1677D01*
X1289Y1676D02*
X1296Y1676D01*
X1931Y1676D02*
X1938Y1676D01*
X1289Y1675D02*
X1296Y1675D01*
X1931Y1675D02*
X1938Y1675D01*
X1289Y1674D02*
X1296Y1674D01*
X1931Y1674D02*
X1938Y1674D01*
X1289Y1673D02*
X1296Y1673D01*
X1931Y1673D02*
X1938Y1673D01*
X1289Y1672D02*
X1296Y1672D01*
X1931Y1672D02*
X1938Y1672D01*
X1289Y1671D02*
X1296Y1671D01*
X1931Y1671D02*
X1938Y1671D01*
X1289Y1670D02*
X1296Y1670D01*
X1931Y1670D02*
X1938Y1670D01*
X1289Y1669D02*
X1296Y1669D01*
X1931Y1669D02*
X1938Y1669D01*
X1289Y1668D02*
X1296Y1668D01*
X1931Y1668D02*
X1938Y1668D01*
X1289Y1667D02*
X1296Y1667D01*
X1931Y1667D02*
X1938Y1667D01*
X1289Y1666D02*
X1296Y1666D01*
X1931Y1666D02*
X1938Y1666D01*
X1289Y1665D02*
X1296Y1665D01*
X1931Y1665D02*
X1938Y1665D01*
X1289Y1664D02*
X1296Y1664D01*
X1931Y1664D02*
X1938Y1664D01*
X1289Y1663D02*
X1296Y1663D01*
X1931Y1663D02*
X1938Y1663D01*
X1289Y1662D02*
X1296Y1662D01*
X1931Y1662D02*
X1938Y1662D01*
X1289Y1661D02*
X1296Y1661D01*
X1931Y1661D02*
X1938Y1661D01*
X1289Y1660D02*
X1296Y1660D01*
X1931Y1660D02*
X1938Y1660D01*
X1289Y1659D02*
X1296Y1659D01*
X1931Y1659D02*
X1938Y1659D01*
X1289Y1658D02*
X1296Y1658D01*
X1931Y1658D02*
X1938Y1658D01*
X1289Y1657D02*
X1296Y1657D01*
X1931Y1657D02*
X1938Y1657D01*
X1289Y1656D02*
X1296Y1656D01*
X1931Y1656D02*
X1938Y1656D01*
X1289Y1655D02*
X1296Y1655D01*
X1931Y1655D02*
X1938Y1655D01*
X1289Y1654D02*
X1296Y1654D01*
X1931Y1654D02*
X1938Y1654D01*
X1289Y1653D02*
X1296Y1653D01*
X1931Y1653D02*
X1938Y1653D01*
X1289Y1652D02*
X1296Y1652D01*
X1931Y1652D02*
X1938Y1652D01*
X1289Y1651D02*
X1296Y1651D01*
X1931Y1651D02*
X1938Y1651D01*
X1289Y1650D02*
X1296Y1650D01*
X1931Y1650D02*
X1938Y1650D01*
X1289Y1649D02*
X1296Y1649D01*
X1931Y1649D02*
X1938Y1649D01*
X1289Y1648D02*
X1296Y1648D01*
X1931Y1648D02*
X1938Y1648D01*
X1289Y1647D02*
X1296Y1647D01*
X1931Y1647D02*
X1938Y1647D01*
X1289Y1646D02*
X1296Y1646D01*
X1931Y1646D02*
X1938Y1646D01*
X1289Y1645D02*
X1296Y1645D01*
X1931Y1645D02*
X1938Y1645D01*
X1289Y1644D02*
X1296Y1644D01*
X1931Y1644D02*
X1938Y1644D01*
X1289Y1643D02*
X1296Y1643D01*
X1931Y1643D02*
X1938Y1643D01*
X1289Y1642D02*
X1296Y1642D01*
X1931Y1642D02*
X1938Y1642D01*
X1289Y1641D02*
X1296Y1641D01*
X1931Y1641D02*
X1938Y1641D01*
X1289Y1640D02*
X1296Y1640D01*
X1931Y1640D02*
X1938Y1640D01*
X1289Y1639D02*
X1296Y1639D01*
X1931Y1639D02*
X1938Y1639D01*
X1289Y1638D02*
X1296Y1638D01*
X1931Y1638D02*
X1938Y1638D01*
X1289Y1637D02*
X1296Y1637D01*
X1931Y1637D02*
X1938Y1637D01*
X1289Y1636D02*
X1296Y1636D01*
X1931Y1636D02*
X1938Y1636D01*
X1289Y1635D02*
X1296Y1635D01*
X1931Y1635D02*
X1938Y1635D01*
X1289Y1634D02*
X1296Y1634D01*
X1931Y1634D02*
X1938Y1634D01*
X1289Y1633D02*
X1296Y1633D01*
X1931Y1633D02*
X1938Y1633D01*
X1289Y1632D02*
X1296Y1632D01*
X1931Y1632D02*
X1938Y1632D01*
X1289Y1631D02*
X1296Y1631D01*
X1931Y1631D02*
X1938Y1631D01*
X1289Y1630D02*
X1296Y1630D01*
X1931Y1630D02*
X1938Y1630D01*
X1289Y1629D02*
X1296Y1629D01*
X1931Y1629D02*
X1938Y1629D01*
X1289Y1628D02*
X1296Y1628D01*
X1931Y1628D02*
X1938Y1628D01*
X1289Y1627D02*
X1296Y1627D01*
X1931Y1627D02*
X1938Y1627D01*
X1289Y1626D02*
X1296Y1626D01*
X1931Y1626D02*
X1938Y1626D01*
X1289Y1625D02*
X1296Y1625D01*
X1931Y1625D02*
X1938Y1625D01*
X1289Y1624D02*
X1296Y1624D01*
X1931Y1624D02*
X1938Y1624D01*
X1289Y1623D02*
X1296Y1623D01*
X1931Y1623D02*
X1938Y1623D01*
X1289Y1622D02*
X1296Y1622D01*
X1931Y1622D02*
X1938Y1622D01*
X1289Y1621D02*
X1296Y1621D01*
X1931Y1621D02*
X1938Y1621D01*
X1289Y1620D02*
X1296Y1620D01*
X1931Y1620D02*
X1938Y1620D01*
X1289Y1619D02*
X1296Y1619D01*
X1931Y1619D02*
X1938Y1619D01*
X1289Y1618D02*
X1296Y1618D01*
X1931Y1618D02*
X1938Y1618D01*
X1289Y1617D02*
X1296Y1617D01*
X1931Y1617D02*
X1938Y1617D01*
X1289Y1616D02*
X1296Y1616D01*
X1931Y1616D02*
X1938Y1616D01*
X1289Y1615D02*
X1296Y1615D01*
X1931Y1615D02*
X1938Y1615D01*
X1289Y1614D02*
X1296Y1614D01*
X1931Y1614D02*
X1938Y1614D01*
X1289Y1613D02*
X1296Y1613D01*
X1931Y1613D02*
X1938Y1613D01*
X1289Y1612D02*
X1296Y1612D01*
X1931Y1612D02*
X1938Y1612D01*
X1289Y1611D02*
X1296Y1611D01*
X1931Y1611D02*
X1938Y1611D01*
X1289Y1610D02*
X1296Y1610D01*
X1931Y1610D02*
X1938Y1610D01*
X1289Y1609D02*
X1296Y1609D01*
X1931Y1609D02*
X1938Y1609D01*
X1289Y1608D02*
X1296Y1608D01*
X1931Y1608D02*
X1938Y1608D01*
X1289Y1607D02*
X1296Y1607D01*
X1931Y1607D02*
X1938Y1607D01*
X1289Y1606D02*
X1296Y1606D01*
X1931Y1606D02*
X1938Y1606D01*
X1289Y1605D02*
X1296Y1605D01*
X1931Y1605D02*
X1938Y1605D01*
X1289Y1604D02*
X1296Y1604D01*
X1931Y1604D02*
X1938Y1604D01*
X1289Y1603D02*
X1296Y1603D01*
X1931Y1603D02*
X1938Y1603D01*
X1289Y1602D02*
X1296Y1602D01*
X1931Y1602D02*
X1938Y1602D01*
X1289Y1601D02*
X1296Y1601D01*
X1931Y1601D02*
X1938Y1601D01*
X1289Y1600D02*
X1296Y1600D01*
X1931Y1600D02*
X1938Y1600D01*
X1289Y1599D02*
X1296Y1599D01*
X1931Y1599D02*
X1938Y1599D01*
X1289Y1598D02*
X1296Y1598D01*
X1931Y1598D02*
X1938Y1598D01*
X1289Y1597D02*
X1296Y1597D01*
X1931Y1597D02*
X1938Y1597D01*
X1289Y1596D02*
X1296Y1596D01*
X1931Y1596D02*
X1938Y1596D01*
X1289Y1595D02*
X1296Y1595D01*
X1931Y1595D02*
X1938Y1595D01*
X1289Y1594D02*
X1296Y1594D01*
X1931Y1594D02*
X1938Y1594D01*
X1289Y1593D02*
X1296Y1593D01*
X1931Y1593D02*
X1938Y1593D01*
X1289Y1592D02*
X1296Y1592D01*
X1931Y1592D02*
X1938Y1592D01*
X1289Y1591D02*
X1296Y1591D01*
X1931Y1591D02*
X1938Y1591D01*
X1289Y1590D02*
X1296Y1590D01*
X1931Y1590D02*
X1938Y1590D01*
X1289Y1589D02*
X1296Y1589D01*
X1931Y1589D02*
X1938Y1589D01*
X1289Y1588D02*
X1296Y1588D01*
X1931Y1588D02*
X1938Y1588D01*
X1289Y1587D02*
X1296Y1587D01*
X1931Y1587D02*
X1938Y1587D01*
X1289Y1586D02*
X1296Y1586D01*
X1931Y1586D02*
X1938Y1586D01*
X1289Y1585D02*
X1296Y1585D01*
X1931Y1585D02*
X1938Y1585D01*
X1289Y1584D02*
X1296Y1584D01*
X1931Y1584D02*
X1938Y1584D01*
X1289Y1583D02*
X1296Y1583D01*
X1931Y1583D02*
X1938Y1583D01*
X1289Y1582D02*
X1296Y1582D01*
X1931Y1582D02*
X1938Y1582D01*
X1289Y1581D02*
X1296Y1581D01*
X1931Y1581D02*
X1938Y1581D01*
X1289Y1580D02*
X1296Y1580D01*
X1931Y1580D02*
X1938Y1580D01*
X1289Y1579D02*
X1296Y1579D01*
X1931Y1579D02*
X1938Y1579D01*
X1289Y1578D02*
X1296Y1578D01*
X1931Y1578D02*
X1938Y1578D01*
X1289Y1577D02*
X1296Y1577D01*
X1931Y1577D02*
X1938Y1577D01*
X1289Y1576D02*
X1296Y1576D01*
X1931Y1576D02*
X1938Y1576D01*
X1289Y1575D02*
X1296Y1575D01*
X1931Y1575D02*
X1938Y1575D01*
X1289Y1574D02*
X1296Y1574D01*
X1931Y1574D02*
X1938Y1574D01*
X1289Y1573D02*
X1296Y1573D01*
X1931Y1573D02*
X1938Y1573D01*
X1289Y1572D02*
X1296Y1572D01*
X1931Y1572D02*
X1938Y1572D01*
X1289Y1571D02*
X1296Y1571D01*
X1931Y1571D02*
X1938Y1571D01*
X1289Y1570D02*
X1296Y1570D01*
X1931Y1570D02*
X1938Y1570D01*
X1289Y1569D02*
X1296Y1569D01*
X1931Y1569D02*
X1938Y1569D01*
X1289Y1568D02*
X1296Y1568D01*
X1931Y1568D02*
X1938Y1568D01*
X1289Y1567D02*
X1296Y1567D01*
X1931Y1567D02*
X1938Y1567D01*
X1289Y1566D02*
X1296Y1566D01*
X1931Y1566D02*
X1938Y1566D01*
X1289Y1565D02*
X1296Y1565D01*
X1931Y1565D02*
X1938Y1565D01*
X1289Y1564D02*
X1296Y1564D01*
X1931Y1564D02*
X1938Y1564D01*
X1289Y1563D02*
X1296Y1563D01*
X1931Y1563D02*
X1938Y1563D01*
X1289Y1562D02*
X1296Y1562D01*
X1931Y1562D02*
X1938Y1562D01*
X1289Y1561D02*
X1296Y1561D01*
X1931Y1561D02*
X1938Y1561D01*
X1289Y1560D02*
X1296Y1560D01*
X1931Y1560D02*
X1938Y1560D01*
X1289Y1559D02*
X1296Y1559D01*
X1931Y1559D02*
X1938Y1559D01*
X1289Y1558D02*
X1296Y1558D01*
X1931Y1558D02*
X1938Y1558D01*
X1289Y1557D02*
X1296Y1557D01*
X1931Y1557D02*
X1938Y1557D01*
X1289Y1556D02*
X1296Y1556D01*
X1931Y1556D02*
X1938Y1556D01*
X1289Y1555D02*
X1296Y1555D01*
X1931Y1555D02*
X1938Y1555D01*
X1289Y1554D02*
X1296Y1554D01*
X1931Y1554D02*
X1938Y1554D01*
X1289Y1553D02*
X1296Y1553D01*
X1931Y1553D02*
X1938Y1553D01*
X1289Y1552D02*
X1296Y1552D01*
X1931Y1552D02*
X1938Y1552D01*
X1289Y1551D02*
X1296Y1551D01*
X1931Y1551D02*
X1938Y1551D01*
X1289Y1550D02*
X1296Y1550D01*
X1931Y1550D02*
X1938Y1550D01*
X1289Y1549D02*
X1296Y1549D01*
X1931Y1549D02*
X1938Y1549D01*
X1289Y1548D02*
X1296Y1548D01*
X1931Y1548D02*
X1938Y1548D01*
X1289Y1547D02*
X1296Y1547D01*
X1931Y1547D02*
X1938Y1547D01*
X1289Y1546D02*
X1296Y1546D01*
X1931Y1546D02*
X1938Y1546D01*
X1289Y1545D02*
X1296Y1545D01*
X1931Y1545D02*
X1938Y1545D01*
X1289Y1544D02*
X1296Y1544D01*
X1931Y1544D02*
X1938Y1544D01*
X1289Y1543D02*
X1296Y1543D01*
X1931Y1543D02*
X1938Y1543D01*
X1289Y1542D02*
X1296Y1542D01*
X1931Y1542D02*
X1938Y1542D01*
X1289Y1541D02*
X1296Y1541D01*
X1931Y1541D02*
X1938Y1541D01*
X1289Y1540D02*
X1296Y1540D01*
X1931Y1540D02*
X1938Y1540D01*
X1289Y1539D02*
X1296Y1539D01*
X1931Y1539D02*
X1938Y1539D01*
X1289Y1538D02*
X1296Y1538D01*
X1931Y1538D02*
X1938Y1538D01*
X1289Y1537D02*
X1296Y1537D01*
X1931Y1537D02*
X1938Y1537D01*
X1289Y1536D02*
X1296Y1536D01*
X1931Y1536D02*
X1938Y1536D01*
X1289Y1535D02*
X1296Y1535D01*
X1931Y1535D02*
X1938Y1535D01*
X1289Y1534D02*
X1296Y1534D01*
X1931Y1534D02*
X1938Y1534D01*
X1289Y1533D02*
X1296Y1533D01*
X1931Y1533D02*
X1938Y1533D01*
X1289Y1532D02*
X1296Y1532D01*
X1931Y1532D02*
X1938Y1532D01*
X1289Y1531D02*
X1296Y1531D01*
X1931Y1531D02*
X1938Y1531D01*
X1289Y1530D02*
X1296Y1530D01*
X1931Y1530D02*
X1938Y1530D01*
X1289Y1529D02*
X1296Y1529D01*
X1931Y1529D02*
X1938Y1529D01*
X1289Y1528D02*
X1296Y1528D01*
X1931Y1528D02*
X1938Y1528D01*
X1289Y1527D02*
X1296Y1527D01*
X1931Y1527D02*
X1938Y1527D01*
X1289Y1526D02*
X1296Y1526D01*
X1931Y1526D02*
X1938Y1526D01*
X1289Y1525D02*
X1296Y1525D01*
X1931Y1525D02*
X1938Y1525D01*
X1289Y1524D02*
X1296Y1524D01*
X1931Y1524D02*
X1938Y1524D01*
X1289Y1523D02*
X1296Y1523D01*
X1931Y1523D02*
X1938Y1523D01*
X1289Y1522D02*
X1296Y1522D01*
X1931Y1522D02*
X1938Y1522D01*
X1289Y1521D02*
X1296Y1521D01*
X1931Y1521D02*
X1938Y1521D01*
X1289Y1520D02*
X1296Y1520D01*
X1931Y1520D02*
X1938Y1520D01*
X1289Y1519D02*
X1296Y1519D01*
X1931Y1519D02*
X1938Y1519D01*
X1289Y1518D02*
X1296Y1518D01*
X1931Y1518D02*
X1938Y1518D01*
X1289Y1517D02*
X1296Y1517D01*
X1931Y1517D02*
X1938Y1517D01*
X1289Y1516D02*
X1296Y1516D01*
X1931Y1516D02*
X1938Y1516D01*
X1289Y1515D02*
X1296Y1515D01*
X1931Y1515D02*
X1938Y1515D01*
X1289Y1514D02*
X1296Y1514D01*
X1931Y1514D02*
X1938Y1514D01*
X1289Y1513D02*
X1296Y1513D01*
X1931Y1513D02*
X1938Y1513D01*
X1289Y1512D02*
X1296Y1512D01*
X1931Y1512D02*
X1938Y1512D01*
X1289Y1511D02*
X1296Y1511D01*
X1931Y1511D02*
X1938Y1511D01*
X1289Y1510D02*
X1296Y1510D01*
X1931Y1510D02*
X1938Y1510D01*
X1289Y1509D02*
X1296Y1509D01*
X1931Y1509D02*
X1938Y1509D01*
X1289Y1508D02*
X1296Y1508D01*
X1931Y1508D02*
X1938Y1508D01*
X1289Y1507D02*
X1296Y1507D01*
X1931Y1507D02*
X1938Y1507D01*
X1289Y1506D02*
X1296Y1506D01*
X1931Y1506D02*
X1938Y1506D01*
X1289Y1505D02*
X1296Y1505D01*
X1931Y1505D02*
X1938Y1505D01*
X1289Y1504D02*
X1296Y1504D01*
X1931Y1504D02*
X1938Y1504D01*
X1289Y1503D02*
X1296Y1503D01*
X1931Y1503D02*
X1938Y1503D01*
X1289Y1502D02*
X1296Y1502D01*
X1931Y1502D02*
X1938Y1502D01*
X1289Y1501D02*
X1296Y1501D01*
X1931Y1501D02*
X1938Y1501D01*
X1289Y1500D02*
X1296Y1500D01*
X1931Y1500D02*
X1938Y1500D01*
X1289Y1499D02*
X1296Y1499D01*
X1931Y1499D02*
X1938Y1499D01*
X1289Y1498D02*
X1296Y1498D01*
X1931Y1498D02*
X1938Y1498D01*
X1289Y1497D02*
X1296Y1497D01*
X1931Y1497D02*
X1938Y1497D01*
X1289Y1496D02*
X1296Y1496D01*
X1931Y1496D02*
X1938Y1496D01*
X1289Y1495D02*
X1296Y1495D01*
X1931Y1495D02*
X1938Y1495D01*
X1289Y1494D02*
X1296Y1494D01*
X1931Y1494D02*
X1938Y1494D01*
X1289Y1493D02*
X1296Y1493D01*
X1931Y1493D02*
X1938Y1493D01*
X1289Y1492D02*
X1296Y1492D01*
X1931Y1492D02*
X1938Y1492D01*
X1289Y1491D02*
X1296Y1491D01*
X1931Y1491D02*
X1938Y1491D01*
X1289Y1490D02*
X1296Y1490D01*
X1931Y1490D02*
X1938Y1490D01*
X1289Y1489D02*
X1296Y1489D01*
X1931Y1489D02*
X1938Y1489D01*
X1289Y1488D02*
X1296Y1488D01*
X1931Y1488D02*
X1938Y1488D01*
X1289Y1487D02*
X1296Y1487D01*
X1931Y1487D02*
X1938Y1487D01*
X1289Y1486D02*
X1296Y1486D01*
X1931Y1486D02*
X1938Y1486D01*
X1289Y1485D02*
X1296Y1485D01*
X1931Y1485D02*
X1938Y1485D01*
X1289Y1484D02*
X1296Y1484D01*
X1931Y1484D02*
X1938Y1484D01*
X1289Y1483D02*
X1296Y1483D01*
X1931Y1483D02*
X1938Y1483D01*
X1289Y1482D02*
X1296Y1482D01*
X1931Y1482D02*
X1938Y1482D01*
X1289Y1481D02*
X1296Y1481D01*
X1931Y1481D02*
X1938Y1481D01*
X1289Y1480D02*
X1296Y1480D01*
X1931Y1480D02*
X1938Y1480D01*
X1289Y1479D02*
X1296Y1479D01*
X1931Y1479D02*
X1938Y1479D01*
X1289Y1478D02*
X1296Y1478D01*
X1931Y1478D02*
X1938Y1478D01*
X1289Y1477D02*
X1296Y1477D01*
X1931Y1477D02*
X1938Y1477D01*
X1289Y1476D02*
X1296Y1476D01*
X1931Y1476D02*
X1938Y1476D01*
X1289Y1475D02*
X1296Y1475D01*
X1931Y1475D02*
X1938Y1475D01*
X1289Y1474D02*
X1296Y1474D01*
X1931Y1474D02*
X1938Y1474D01*
X1289Y1473D02*
X1296Y1473D01*
X1931Y1473D02*
X1938Y1473D01*
X1289Y1472D02*
X1296Y1472D01*
X1931Y1472D02*
X1938Y1472D01*
X1289Y1471D02*
X1296Y1471D01*
X1931Y1471D02*
X1938Y1471D01*
X1289Y1470D02*
X1296Y1470D01*
X1931Y1470D02*
X1938Y1470D01*
X1289Y1469D02*
X1296Y1469D01*
X1931Y1469D02*
X1938Y1469D01*
X1289Y1468D02*
X1296Y1468D01*
X1931Y1468D02*
X1938Y1468D01*
X1289Y1467D02*
X1296Y1467D01*
X1931Y1467D02*
X1938Y1467D01*
X1289Y1466D02*
X1296Y1466D01*
X1931Y1466D02*
X1938Y1466D01*
X1289Y1465D02*
X1296Y1465D01*
X1931Y1465D02*
X1938Y1465D01*
X1289Y1464D02*
X1296Y1464D01*
X1931Y1464D02*
X1938Y1464D01*
X1289Y1463D02*
X1296Y1463D01*
X1931Y1463D02*
X1938Y1463D01*
X1289Y1462D02*
X1296Y1462D01*
X1931Y1462D02*
X1938Y1462D01*
X1289Y1461D02*
X1296Y1461D01*
X1931Y1461D02*
X1938Y1461D01*
X1289Y1460D02*
X1296Y1460D01*
X1931Y1460D02*
X1938Y1460D01*
X1289Y1459D02*
X1296Y1459D01*
X1931Y1459D02*
X1938Y1459D01*
X1289Y1458D02*
X1296Y1458D01*
X1931Y1458D02*
X1938Y1458D01*
X1289Y1457D02*
X1296Y1457D01*
X1931Y1457D02*
X1938Y1457D01*
X1289Y1456D02*
X1296Y1456D01*
X1931Y1456D02*
X1938Y1456D01*
X1289Y1455D02*
X1296Y1455D01*
X1931Y1455D02*
X1938Y1455D01*
X1289Y1454D02*
X1296Y1454D01*
X1931Y1454D02*
X1938Y1454D01*
X1289Y1453D02*
X1296Y1453D01*
X1931Y1453D02*
X1938Y1453D01*
X1289Y1452D02*
X1296Y1452D01*
X1931Y1452D02*
X1938Y1452D01*
X1289Y1451D02*
X1296Y1451D01*
X1931Y1451D02*
X1938Y1451D01*
X1289Y1450D02*
X1296Y1450D01*
X1931Y1450D02*
X1938Y1450D01*
X1289Y1449D02*
X1296Y1449D01*
X1931Y1449D02*
X1938Y1449D01*
X1289Y1448D02*
X1296Y1448D01*
X1931Y1448D02*
X1938Y1448D01*
X1289Y1447D02*
X1296Y1447D01*
X1931Y1447D02*
X1938Y1447D01*
X1289Y1446D02*
X1296Y1446D01*
X1931Y1446D02*
X1938Y1446D01*
X1289Y1445D02*
X1296Y1445D01*
X1931Y1445D02*
X1938Y1445D01*
X1289Y1444D02*
X1296Y1444D01*
X1931Y1444D02*
X1938Y1444D01*
X1289Y1443D02*
X1296Y1443D01*
X1931Y1443D02*
X1938Y1443D01*
X1289Y1442D02*
X1296Y1442D01*
X1931Y1442D02*
X1938Y1442D01*
X1289Y1441D02*
X1296Y1441D01*
X1931Y1441D02*
X1938Y1441D01*
X1289Y1440D02*
X1296Y1440D01*
X1931Y1440D02*
X1938Y1440D01*
X1289Y1439D02*
X1296Y1439D01*
X1931Y1439D02*
X1938Y1439D01*
X1289Y1438D02*
X1296Y1438D01*
X1931Y1438D02*
X1938Y1438D01*
X1289Y1437D02*
X1296Y1437D01*
X1931Y1437D02*
X1938Y1437D01*
X1289Y1436D02*
X1296Y1436D01*
X1931Y1436D02*
X1938Y1436D01*
X1289Y1435D02*
X1296Y1435D01*
X1931Y1435D02*
X1938Y1435D01*
X1289Y1434D02*
X1296Y1434D01*
X1931Y1434D02*
X1938Y1434D01*
X1289Y1433D02*
X1296Y1433D01*
X1931Y1433D02*
X1938Y1433D01*
X1289Y1432D02*
X1296Y1432D01*
X1931Y1432D02*
X1938Y1432D01*
X1289Y1431D02*
X1296Y1431D01*
X1931Y1431D02*
X1938Y1431D01*
X1289Y1430D02*
X1296Y1430D01*
X1931Y1430D02*
X1938Y1430D01*
X1289Y1429D02*
X1296Y1429D01*
X1931Y1429D02*
X1938Y1429D01*
X1289Y1428D02*
X1296Y1428D01*
X1931Y1428D02*
X1938Y1428D01*
X1289Y1427D02*
X1296Y1427D01*
X1931Y1427D02*
X1938Y1427D01*
X1289Y1426D02*
X1296Y1426D01*
X1931Y1426D02*
X1938Y1426D01*
X1289Y1425D02*
X1296Y1425D01*
X1931Y1425D02*
X1938Y1425D01*
X1289Y1424D02*
X1296Y1424D01*
X1931Y1424D02*
X1938Y1424D01*
X1289Y1423D02*
X1296Y1423D01*
X1931Y1423D02*
X1938Y1423D01*
X1289Y1422D02*
X1296Y1422D01*
X1931Y1422D02*
X1938Y1422D01*
X1289Y1421D02*
X1296Y1421D01*
X1931Y1421D02*
X1938Y1421D01*
X1289Y1420D02*
X1296Y1420D01*
X1931Y1420D02*
X1938Y1420D01*
X1289Y1419D02*
X1296Y1419D01*
X1931Y1419D02*
X1938Y1419D01*
X1289Y1418D02*
X1296Y1418D01*
X1931Y1418D02*
X1938Y1418D01*
X1289Y1417D02*
X1296Y1417D01*
X1931Y1417D02*
X1938Y1417D01*
X1289Y1416D02*
X1296Y1416D01*
X1931Y1416D02*
X1938Y1416D01*
X1289Y1415D02*
X1296Y1415D01*
X1931Y1415D02*
X1938Y1415D01*
X1289Y1414D02*
X1296Y1414D01*
X1931Y1414D02*
X1938Y1414D01*
X1289Y1413D02*
X1296Y1413D01*
X1931Y1413D02*
X1938Y1413D01*
X1289Y1412D02*
X1296Y1412D01*
X1931Y1412D02*
X1938Y1412D01*
X1289Y1411D02*
X1296Y1411D01*
X1931Y1411D02*
X1938Y1411D01*
X1289Y1410D02*
X1296Y1410D01*
X1931Y1410D02*
X1938Y1410D01*
X1289Y1409D02*
X1296Y1409D01*
X1931Y1409D02*
X1938Y1409D01*
X1289Y1408D02*
X1296Y1408D01*
X1931Y1408D02*
X1938Y1408D01*
X1289Y1407D02*
X1296Y1407D01*
X1931Y1407D02*
X1938Y1407D01*
X1289Y1406D02*
X1296Y1406D01*
X1931Y1406D02*
X1938Y1406D01*
X1289Y1405D02*
X1296Y1405D01*
X1931Y1405D02*
X1938Y1405D01*
X1289Y1404D02*
X1296Y1404D01*
X1931Y1404D02*
X1938Y1404D01*
X1289Y1403D02*
X1296Y1403D01*
X1931Y1403D02*
X1938Y1403D01*
X1289Y1402D02*
X1296Y1402D01*
X1931Y1402D02*
X1938Y1402D01*
X1289Y1401D02*
X1296Y1401D01*
X1931Y1401D02*
X1938Y1401D01*
X1289Y1400D02*
X1296Y1400D01*
X1931Y1400D02*
X1938Y1400D01*
X1289Y1399D02*
X1296Y1399D01*
X1931Y1399D02*
X1938Y1399D01*
X1289Y1398D02*
X1296Y1398D01*
X1931Y1398D02*
X1938Y1398D01*
X1289Y1397D02*
X1296Y1397D01*
X1931Y1397D02*
X1938Y1397D01*
X1289Y1396D02*
X1296Y1396D01*
X1931Y1396D02*
X1938Y1396D01*
X1289Y1395D02*
X1296Y1395D01*
X1931Y1395D02*
X1938Y1395D01*
X1289Y1394D02*
X1296Y1394D01*
X1931Y1394D02*
X1938Y1394D01*
X1289Y1393D02*
X1296Y1393D01*
X1931Y1393D02*
X1938Y1393D01*
X1289Y1392D02*
X1296Y1392D01*
X1931Y1392D02*
X1938Y1392D01*
X1289Y1391D02*
X1296Y1391D01*
X1931Y1391D02*
X1938Y1391D01*
X1289Y1390D02*
X1296Y1390D01*
X1931Y1390D02*
X1938Y1390D01*
X1289Y1389D02*
X1296Y1389D01*
X1931Y1389D02*
X1938Y1389D01*
X1289Y1388D02*
X1296Y1388D01*
X1931Y1388D02*
X1938Y1388D01*
X1289Y1387D02*
X1296Y1387D01*
X1931Y1387D02*
X1938Y1387D01*
X1289Y1386D02*
X1296Y1386D01*
X1931Y1386D02*
X1938Y1386D01*
X1289Y1385D02*
X1296Y1385D01*
X1931Y1385D02*
X1938Y1385D01*
X1289Y1384D02*
X1296Y1384D01*
X1931Y1384D02*
X1938Y1384D01*
X1289Y1383D02*
X1296Y1383D01*
X1931Y1383D02*
X1938Y1383D01*
X1289Y1382D02*
X1296Y1382D01*
X1931Y1382D02*
X1938Y1382D01*
X1289Y1381D02*
X1296Y1381D01*
X1931Y1381D02*
X1938Y1381D01*
X1289Y1380D02*
X1296Y1380D01*
X1931Y1380D02*
X1938Y1380D01*
X1289Y1379D02*
X1296Y1379D01*
X1931Y1379D02*
X1938Y1379D01*
X1289Y1378D02*
X1296Y1378D01*
X1931Y1378D02*
X1938Y1378D01*
X1289Y1377D02*
X1296Y1377D01*
X1931Y1377D02*
X1938Y1377D01*
X1289Y1376D02*
X1296Y1376D01*
X1931Y1376D02*
X1938Y1376D01*
X1289Y1375D02*
X1296Y1375D01*
X1931Y1375D02*
X1938Y1375D01*
X1289Y1374D02*
X1296Y1374D01*
X1931Y1374D02*
X1938Y1374D01*
X1289Y1373D02*
X1296Y1373D01*
X1931Y1373D02*
X1938Y1373D01*
X1289Y1372D02*
X1296Y1372D01*
X1931Y1372D02*
X1938Y1372D01*
X1289Y1371D02*
X1296Y1371D01*
X1931Y1371D02*
X1938Y1371D01*
X1289Y1370D02*
X1296Y1370D01*
X1931Y1370D02*
X1938Y1370D01*
X1289Y1369D02*
X1296Y1369D01*
X1931Y1369D02*
X1938Y1369D01*
X1289Y1368D02*
X1296Y1368D01*
X1931Y1368D02*
X1938Y1368D01*
X1289Y1367D02*
X1296Y1367D01*
X1931Y1367D02*
X1938Y1367D01*
X1289Y1366D02*
X1296Y1366D01*
X1931Y1366D02*
X1938Y1366D01*
X1289Y1365D02*
X1296Y1365D01*
X1931Y1365D02*
X1938Y1365D01*
X1289Y1364D02*
X1296Y1364D01*
X1931Y1364D02*
X1938Y1364D01*
X1289Y1363D02*
X1296Y1363D01*
X1931Y1363D02*
X1938Y1363D01*
X1289Y1362D02*
X1296Y1362D01*
X1931Y1362D02*
X1938Y1362D01*
X1289Y1361D02*
X1296Y1361D01*
X1931Y1361D02*
X1938Y1361D01*
X1289Y1360D02*
X1296Y1360D01*
X1931Y1360D02*
X1938Y1360D01*
X1289Y1359D02*
X1296Y1359D01*
X1931Y1359D02*
X1938Y1359D01*
X1289Y1358D02*
X1296Y1358D01*
X1931Y1358D02*
X1938Y1358D01*
X1289Y1357D02*
X1296Y1357D01*
X1931Y1357D02*
X1938Y1357D01*
X1289Y1356D02*
X1296Y1356D01*
X1931Y1356D02*
X1938Y1356D01*
X1289Y1355D02*
X1296Y1355D01*
X1931Y1355D02*
X1938Y1355D01*
X1289Y1354D02*
X1296Y1354D01*
X1931Y1354D02*
X1938Y1354D01*
X1289Y1353D02*
X1296Y1353D01*
X1931Y1353D02*
X1938Y1353D01*
X1289Y1352D02*
X1296Y1352D01*
X1931Y1352D02*
X1938Y1352D01*
X1289Y1351D02*
X1296Y1351D01*
X1931Y1351D02*
X1938Y1351D01*
X1289Y1350D02*
X1296Y1350D01*
X1931Y1350D02*
X1938Y1350D01*
X1289Y1349D02*
X1296Y1349D01*
X1931Y1349D02*
X1938Y1349D01*
X1289Y1348D02*
X1296Y1348D01*
X1931Y1348D02*
X1938Y1348D01*
X1289Y1347D02*
X1296Y1347D01*
X1931Y1347D02*
X1938Y1347D01*
X1289Y1346D02*
X1296Y1346D01*
X1931Y1346D02*
X1938Y1346D01*
X1289Y1345D02*
X1296Y1345D01*
X1931Y1345D02*
X1938Y1345D01*
X1289Y1344D02*
X1296Y1344D01*
X1931Y1344D02*
X1938Y1344D01*
X1289Y1343D02*
X1296Y1343D01*
X1931Y1343D02*
X1938Y1343D01*
X1289Y1342D02*
X1296Y1342D01*
X1931Y1342D02*
X1938Y1342D01*
X1289Y1341D02*
X1296Y1341D01*
X1931Y1341D02*
X1938Y1341D01*
X1289Y1340D02*
X1296Y1340D01*
X1931Y1340D02*
X1938Y1340D01*
X1289Y1339D02*
X1296Y1339D01*
X1931Y1339D02*
X1938Y1339D01*
X1289Y1338D02*
X1296Y1338D01*
X1931Y1338D02*
X1938Y1338D01*
X1289Y1337D02*
X1296Y1337D01*
X1931Y1337D02*
X1938Y1337D01*
X1289Y1336D02*
X1296Y1336D01*
X1931Y1336D02*
X1938Y1336D01*
X1289Y1335D02*
X1296Y1335D01*
X1931Y1335D02*
X1938Y1335D01*
X1289Y1334D02*
X1296Y1334D01*
X1931Y1334D02*
X1938Y1334D01*
X1289Y1333D02*
X1296Y1333D01*
X1931Y1333D02*
X1938Y1333D01*
X1289Y1332D02*
X1296Y1332D01*
X1931Y1332D02*
X1938Y1332D01*
X1289Y1331D02*
X1296Y1331D01*
X1931Y1331D02*
X1938Y1331D01*
X1289Y1330D02*
X1296Y1330D01*
X1931Y1330D02*
X1938Y1330D01*
X1289Y1329D02*
X1296Y1329D01*
X1931Y1329D02*
X1938Y1329D01*
X1289Y1328D02*
X1296Y1328D01*
X1931Y1328D02*
X1938Y1328D01*
X1289Y1327D02*
X1296Y1327D01*
X1931Y1327D02*
X1938Y1327D01*
X1289Y1326D02*
X1296Y1326D01*
X1931Y1326D02*
X1938Y1326D01*
X1289Y1325D02*
X1296Y1325D01*
X1931Y1325D02*
X1938Y1325D01*
X1289Y1324D02*
X1296Y1324D01*
X1931Y1324D02*
X1938Y1324D01*
X1289Y1323D02*
X1296Y1323D01*
X1931Y1323D02*
X1938Y1323D01*
X1289Y1322D02*
X1296Y1322D01*
X1931Y1322D02*
X1938Y1322D01*
X1289Y1321D02*
X1296Y1321D01*
X1931Y1321D02*
X1938Y1321D01*
X1289Y1320D02*
X1296Y1320D01*
X1931Y1320D02*
X1938Y1320D01*
X1289Y1319D02*
X1296Y1319D01*
X1931Y1319D02*
X1938Y1319D01*
X1289Y1318D02*
X1296Y1318D01*
X1931Y1318D02*
X1938Y1318D01*
X1289Y1317D02*
X1296Y1317D01*
X1931Y1317D02*
X1938Y1317D01*
X1289Y1316D02*
X1296Y1316D01*
X1931Y1316D02*
X1938Y1316D01*
X1289Y1315D02*
X1296Y1315D01*
X1931Y1315D02*
X1938Y1315D01*
X1289Y1314D02*
X1296Y1314D01*
X1931Y1314D02*
X1938Y1314D01*
X1289Y1313D02*
X1296Y1313D01*
X1931Y1313D02*
X1938Y1313D01*
X1289Y1312D02*
X1296Y1312D01*
X1931Y1312D02*
X1938Y1312D01*
X1289Y1311D02*
X1296Y1311D01*
X1931Y1311D02*
X1938Y1311D01*
X1289Y1310D02*
X1296Y1310D01*
X1931Y1310D02*
X1938Y1310D01*
X1289Y1309D02*
X1296Y1309D01*
X1931Y1309D02*
X1938Y1309D01*
X1289Y1308D02*
X1296Y1308D01*
X1931Y1308D02*
X1938Y1308D01*
X1289Y1307D02*
X1296Y1307D01*
X1931Y1307D02*
X1938Y1307D01*
X1289Y1306D02*
X1296Y1306D01*
X1931Y1306D02*
X1938Y1306D01*
X1289Y1305D02*
X1296Y1305D01*
X1931Y1305D02*
X1938Y1305D01*
X1289Y1304D02*
X1296Y1304D01*
X1931Y1304D02*
X1938Y1304D01*
X1289Y1303D02*
X1296Y1303D01*
X1931Y1303D02*
X1938Y1303D01*
X1289Y1302D02*
X1296Y1302D01*
X1931Y1302D02*
X1938Y1302D01*
X1289Y1301D02*
X1296Y1301D01*
X1931Y1301D02*
X1938Y1301D01*
X1289Y1300D02*
X1296Y1300D01*
X1931Y1300D02*
X1938Y1300D01*
X1289Y1299D02*
X1296Y1299D01*
X1931Y1299D02*
X1938Y1299D01*
X1289Y1298D02*
X1296Y1298D01*
X1931Y1298D02*
X1938Y1298D01*
X1289Y1297D02*
X1296Y1297D01*
X1931Y1297D02*
X1938Y1297D01*
X1289Y1296D02*
X1296Y1296D01*
X1931Y1296D02*
X1938Y1296D01*
X1289Y1295D02*
X1296Y1295D01*
X1931Y1295D02*
X1938Y1295D01*
X1289Y1294D02*
X1296Y1294D01*
X1931Y1294D02*
X1938Y1294D01*
X1289Y1293D02*
X1296Y1293D01*
X1931Y1293D02*
X1938Y1293D01*
X1289Y1292D02*
X1296Y1292D01*
X1931Y1292D02*
X1938Y1292D01*
X1289Y1291D02*
X1296Y1291D01*
X1931Y1291D02*
X1938Y1291D01*
X1289Y1290D02*
X1296Y1290D01*
X1931Y1290D02*
X1938Y1290D01*
X1289Y1289D02*
X1296Y1289D01*
X1931Y1289D02*
X1938Y1289D01*
X1289Y1288D02*
X1296Y1288D01*
X1931Y1288D02*
X1938Y1288D01*
X1289Y1287D02*
X1296Y1287D01*
X1931Y1287D02*
X1938Y1287D01*
X1289Y1286D02*
X1296Y1286D01*
X1931Y1286D02*
X1938Y1286D01*
X1289Y1285D02*
X1296Y1285D01*
X1931Y1285D02*
X1938Y1285D01*
X1289Y1284D02*
X1296Y1284D01*
X1931Y1284D02*
X1938Y1284D01*
X1289Y1283D02*
X1296Y1283D01*
X1931Y1283D02*
X1938Y1283D01*
X1289Y1282D02*
X1296Y1282D01*
X1931Y1282D02*
X1938Y1282D01*
X1289Y1281D02*
X1296Y1281D01*
X1931Y1281D02*
X1938Y1281D01*
X1289Y1280D02*
X1296Y1280D01*
X1931Y1280D02*
X1938Y1280D01*
X1289Y1279D02*
X1296Y1279D01*
X1931Y1279D02*
X1938Y1279D01*
X1289Y1278D02*
X1296Y1278D01*
X1931Y1278D02*
X1938Y1278D01*
X1289Y1277D02*
X1296Y1277D01*
X1931Y1277D02*
X1938Y1277D01*
X1289Y1276D02*
X1296Y1276D01*
X1931Y1276D02*
X1938Y1276D01*
X1289Y1275D02*
X1296Y1275D01*
X1931Y1275D02*
X1938Y1275D01*
X1289Y1274D02*
X1296Y1274D01*
X1931Y1274D02*
X1938Y1274D01*
X1289Y1273D02*
X1296Y1273D01*
X1931Y1273D02*
X1938Y1273D01*
X1289Y1272D02*
X1296Y1272D01*
X1931Y1272D02*
X1938Y1272D01*
X1289Y1271D02*
X1296Y1271D01*
X1931Y1271D02*
X1938Y1271D01*
X1289Y1270D02*
X1296Y1270D01*
X1931Y1270D02*
X1938Y1270D01*
X1289Y1269D02*
X1296Y1269D01*
X1931Y1269D02*
X1938Y1269D01*
X1289Y1268D02*
X1296Y1268D01*
X1931Y1268D02*
X1938Y1268D01*
X1289Y1267D02*
X1296Y1267D01*
X1931Y1267D02*
X1938Y1267D01*
X1289Y1266D02*
X1296Y1266D01*
X1931Y1266D02*
X1938Y1266D01*
X1289Y1265D02*
X1296Y1265D01*
X1931Y1265D02*
X1938Y1265D01*
X1289Y1264D02*
X1296Y1264D01*
X1931Y1264D02*
X1938Y1264D01*
X1289Y1263D02*
X1296Y1263D01*
X1931Y1263D02*
X1938Y1263D01*
X1289Y1262D02*
X1296Y1262D01*
X1931Y1262D02*
X1938Y1262D01*
X1289Y1261D02*
X1296Y1261D01*
X1931Y1261D02*
X1938Y1261D01*
X1289Y1260D02*
X1296Y1260D01*
X1931Y1260D02*
X1938Y1260D01*
X1289Y1259D02*
X1296Y1259D01*
X1931Y1259D02*
X1938Y1259D01*
X1289Y1258D02*
X1296Y1258D01*
X1931Y1258D02*
X1938Y1258D01*
X1289Y1257D02*
X1296Y1257D01*
X1931Y1257D02*
X1938Y1257D01*
X1289Y1256D02*
X1296Y1256D01*
X1931Y1256D02*
X1938Y1256D01*
X1289Y1255D02*
X1296Y1255D01*
X1931Y1255D02*
X1938Y1255D01*
X1289Y1254D02*
X1296Y1254D01*
X1931Y1254D02*
X1938Y1254D01*
X1289Y1253D02*
X1296Y1253D01*
X1931Y1253D02*
X1938Y1253D01*
X1289Y1252D02*
X1296Y1252D01*
X1931Y1252D02*
X1938Y1252D01*
X1289Y1251D02*
X1296Y1251D01*
X1931Y1251D02*
X1938Y1251D01*
X1289Y1250D02*
X1296Y1250D01*
X1931Y1250D02*
X1938Y1250D01*
X1289Y1249D02*
X1296Y1249D01*
X1931Y1249D02*
X1938Y1249D01*
X1289Y1248D02*
X1296Y1248D01*
X1931Y1248D02*
X1938Y1248D01*
X1289Y1247D02*
X1296Y1247D01*
X1931Y1247D02*
X1938Y1247D01*
X1289Y1246D02*
X1296Y1246D01*
X1931Y1246D02*
X1938Y1246D01*
X1289Y1245D02*
X1296Y1245D01*
X1931Y1245D02*
X1938Y1245D01*
X1289Y1244D02*
X1296Y1244D01*
X1931Y1244D02*
X1938Y1244D01*
X1289Y1243D02*
X1296Y1243D01*
X1931Y1243D02*
X1938Y1243D01*
X1289Y1242D02*
X1296Y1242D01*
X1931Y1242D02*
X1938Y1242D01*
X1289Y1241D02*
X1296Y1241D01*
X1931Y1241D02*
X1938Y1241D01*
X1289Y1240D02*
X1296Y1240D01*
X1931Y1240D02*
X1938Y1240D01*
X1289Y1239D02*
X1296Y1239D01*
X1931Y1239D02*
X1938Y1239D01*
X1289Y1238D02*
X1296Y1238D01*
X1931Y1238D02*
X1938Y1238D01*
X1289Y1237D02*
X1296Y1237D01*
X1931Y1237D02*
X1938Y1237D01*
X1289Y1236D02*
X1296Y1236D01*
X1931Y1236D02*
X1938Y1236D01*
X1289Y1235D02*
X1296Y1235D01*
X1931Y1235D02*
X1938Y1235D01*
X1289Y1234D02*
X1296Y1234D01*
X1931Y1234D02*
X1938Y1234D01*
X1289Y1233D02*
X1296Y1233D01*
X1931Y1233D02*
X1938Y1233D01*
X1289Y1232D02*
X1296Y1232D01*
X1931Y1232D02*
X1938Y1232D01*
X1289Y1231D02*
X1296Y1231D01*
X1931Y1231D02*
X1938Y1231D01*
X1289Y1230D02*
X1296Y1230D01*
X1931Y1230D02*
X1938Y1230D01*
X1289Y1229D02*
X1296Y1229D01*
X1931Y1229D02*
X1938Y1229D01*
X1289Y1228D02*
X1296Y1228D01*
X1931Y1228D02*
X1938Y1228D01*
X1289Y1227D02*
X1296Y1227D01*
X1931Y1227D02*
X1938Y1227D01*
X1289Y1226D02*
X1296Y1226D01*
X1931Y1226D02*
X1938Y1226D01*
X1289Y1225D02*
X1296Y1225D01*
X1931Y1225D02*
X1938Y1225D01*
X1289Y1224D02*
X1296Y1224D01*
X1931Y1224D02*
X1938Y1224D01*
X1289Y1223D02*
X1296Y1223D01*
X1931Y1223D02*
X1938Y1223D01*
X1289Y1222D02*
X1296Y1222D01*
X1931Y1222D02*
X1938Y1222D01*
X1289Y1221D02*
X1296Y1221D01*
X1931Y1221D02*
X1938Y1221D01*
X1289Y1220D02*
X1296Y1220D01*
X1931Y1220D02*
X1938Y1220D01*
X1289Y1219D02*
X1296Y1219D01*
X1931Y1219D02*
X1938Y1219D01*
X1289Y1218D02*
X1296Y1218D01*
X1931Y1218D02*
X1938Y1218D01*
X1289Y1217D02*
X1296Y1217D01*
X1931Y1217D02*
X1938Y1217D01*
X1289Y1216D02*
X1296Y1216D01*
X1931Y1216D02*
X1938Y1216D01*
X1289Y1215D02*
X1296Y1215D01*
X1931Y1215D02*
X1938Y1215D01*
X1289Y1214D02*
X1296Y1214D01*
X1931Y1214D02*
X1938Y1214D01*
X1289Y1213D02*
X1296Y1213D01*
X1931Y1213D02*
X1938Y1213D01*
X1289Y1212D02*
X1296Y1212D01*
X1931Y1212D02*
X1938Y1212D01*
X1289Y1211D02*
X1296Y1211D01*
X1931Y1211D02*
X1938Y1211D01*
X1289Y1210D02*
X1296Y1210D01*
X1931Y1210D02*
X1938Y1210D01*
X1289Y1209D02*
X1296Y1209D01*
X1931Y1209D02*
X1938Y1209D01*
X1289Y1208D02*
X1296Y1208D01*
X1931Y1208D02*
X1938Y1208D01*
X1289Y1207D02*
X1296Y1207D01*
X1931Y1207D02*
X1938Y1207D01*
X1289Y1206D02*
X1296Y1206D01*
X1931Y1206D02*
X1938Y1206D01*
X1289Y1205D02*
X1296Y1205D01*
X1931Y1205D02*
X1938Y1205D01*
X1289Y1204D02*
X1296Y1204D01*
X1931Y1204D02*
X1938Y1204D01*
X1289Y1203D02*
X1296Y1203D01*
X1931Y1203D02*
X1938Y1203D01*
X1289Y1202D02*
X1296Y1202D01*
X1931Y1202D02*
X1938Y1202D01*
X1289Y1201D02*
X1296Y1201D01*
X1931Y1201D02*
X1938Y1201D01*
X1289Y1200D02*
X1296Y1200D01*
X1931Y1200D02*
X1938Y1200D01*
X1289Y1199D02*
X1296Y1199D01*
X1931Y1199D02*
X1938Y1199D01*
X1289Y1198D02*
X1296Y1198D01*
X1931Y1198D02*
X1938Y1198D01*
X1289Y1197D02*
X1296Y1197D01*
X1931Y1197D02*
X1938Y1197D01*
X1289Y1196D02*
X1296Y1196D01*
X1931Y1196D02*
X1938Y1196D01*
X1289Y1195D02*
X1296Y1195D01*
X1931Y1195D02*
X1938Y1195D01*
X1289Y1194D02*
X1296Y1194D01*
X1931Y1194D02*
X1938Y1194D01*
X1289Y1193D02*
X1296Y1193D01*
X1931Y1193D02*
X1938Y1193D01*
X1289Y1192D02*
X1296Y1192D01*
X1931Y1192D02*
X1938Y1192D01*
X1289Y1191D02*
X1296Y1191D01*
X1931Y1191D02*
X1938Y1191D01*
X1289Y1190D02*
X1296Y1190D01*
X1931Y1190D02*
X1938Y1190D01*
X1289Y1189D02*
X1296Y1189D01*
X1931Y1189D02*
X1938Y1189D01*
X1289Y1188D02*
X1296Y1188D01*
X1931Y1188D02*
X1938Y1188D01*
X1289Y1187D02*
X1296Y1187D01*
X1931Y1187D02*
X1938Y1187D01*
X1289Y1186D02*
X1296Y1186D01*
X1931Y1186D02*
X1938Y1186D01*
X1289Y1185D02*
X1296Y1185D01*
X1931Y1185D02*
X1938Y1185D01*
X1289Y1184D02*
X1296Y1184D01*
X1931Y1184D02*
X1938Y1184D01*
X1289Y1183D02*
X1296Y1183D01*
X1931Y1183D02*
X1938Y1183D01*
X1289Y1182D02*
X1296Y1182D01*
X1931Y1182D02*
X1938Y1182D01*
X1289Y1181D02*
X1296Y1181D01*
X1931Y1181D02*
X1938Y1181D01*
X1289Y1180D02*
X1296Y1180D01*
X1931Y1180D02*
X1938Y1180D01*
X1289Y1179D02*
X1296Y1179D01*
X1931Y1179D02*
X1938Y1179D01*
X1289Y1178D02*
X1296Y1178D01*
X1931Y1178D02*
X1938Y1178D01*
X1289Y1177D02*
X1296Y1177D01*
X1931Y1177D02*
X1938Y1177D01*
X1289Y1176D02*
X1296Y1176D01*
X1931Y1176D02*
X1938Y1176D01*
X1289Y1175D02*
X1296Y1175D01*
X1931Y1175D02*
X1938Y1175D01*
X1289Y1174D02*
X1296Y1174D01*
X1931Y1174D02*
X1938Y1174D01*
X1289Y1173D02*
X1296Y1173D01*
X1931Y1173D02*
X1938Y1173D01*
X1289Y1172D02*
X1296Y1172D01*
X1931Y1172D02*
X1938Y1172D01*
X1289Y1171D02*
X1296Y1171D01*
X1931Y1171D02*
X1938Y1171D01*
X1289Y1170D02*
X1296Y1170D01*
X1931Y1170D02*
X1938Y1170D01*
X1289Y1169D02*
X1296Y1169D01*
X1931Y1169D02*
X1938Y1169D01*
X1289Y1168D02*
X1296Y1168D01*
X1931Y1168D02*
X1938Y1168D01*
X1289Y1167D02*
X1296Y1167D01*
X1931Y1167D02*
X1938Y1167D01*
X1289Y1166D02*
X1296Y1166D01*
X1931Y1166D02*
X1938Y1166D01*
X1289Y1165D02*
X1296Y1165D01*
X1931Y1165D02*
X1938Y1165D01*
X1289Y1164D02*
X1296Y1164D01*
X1931Y1164D02*
X1938Y1164D01*
X1289Y1163D02*
X1296Y1163D01*
X1931Y1163D02*
X1938Y1163D01*
X1289Y1162D02*
X1296Y1162D01*
X1931Y1162D02*
X1938Y1162D01*
X1289Y1161D02*
X1296Y1161D01*
X1931Y1161D02*
X1938Y1161D01*
X1289Y1160D02*
X1296Y1160D01*
X1931Y1160D02*
X1938Y1160D01*
X1289Y1159D02*
X1296Y1159D01*
X1931Y1159D02*
X1938Y1159D01*
X1289Y1158D02*
X1296Y1158D01*
X1931Y1158D02*
X1938Y1158D01*
X1289Y1157D02*
X1296Y1157D01*
X1931Y1157D02*
X1938Y1157D01*
X1289Y1156D02*
X1296Y1156D01*
X1931Y1156D02*
X1938Y1156D01*
X1289Y1155D02*
X1296Y1155D01*
X1931Y1155D02*
X1938Y1155D01*
X1289Y1154D02*
X1296Y1154D01*
X1931Y1154D02*
X1938Y1154D01*
X1289Y1153D02*
X1296Y1153D01*
X1931Y1153D02*
X1938Y1153D01*
X1289Y1152D02*
X1296Y1152D01*
X1931Y1152D02*
X1938Y1152D01*
X1289Y1151D02*
X1296Y1151D01*
X1931Y1151D02*
X1938Y1151D01*
X1289Y1150D02*
X1296Y1150D01*
X1931Y1150D02*
X1938Y1150D01*
X1289Y1149D02*
X1296Y1149D01*
X1931Y1149D02*
X1938Y1149D01*
X1289Y1148D02*
X1296Y1148D01*
X1931Y1148D02*
X1938Y1148D01*
X1289Y1147D02*
X1296Y1147D01*
X1931Y1147D02*
X1938Y1147D01*
X1289Y1146D02*
X1296Y1146D01*
X1931Y1146D02*
X1938Y1146D01*
X1289Y1145D02*
X1296Y1145D01*
X1931Y1145D02*
X1938Y1145D01*
X1289Y1144D02*
X1296Y1144D01*
X1931Y1144D02*
X1938Y1144D01*
X1289Y1143D02*
X1296Y1143D01*
X1931Y1143D02*
X1938Y1143D01*
X1289Y1142D02*
X1296Y1142D01*
X1931Y1142D02*
X1938Y1142D01*
X1289Y1141D02*
X1296Y1141D01*
X1931Y1141D02*
X1938Y1141D01*
X1289Y1140D02*
X1296Y1140D01*
X1931Y1140D02*
X1938Y1140D01*
X1289Y1139D02*
X1296Y1139D01*
X1931Y1139D02*
X1938Y1139D01*
X1289Y1138D02*
X1296Y1138D01*
X1931Y1138D02*
X1938Y1138D01*
X1289Y1137D02*
X1296Y1137D01*
X1931Y1137D02*
X1938Y1137D01*
X1289Y1136D02*
X1296Y1136D01*
X1931Y1136D02*
X1938Y1136D01*
X1289Y1135D02*
X1296Y1135D01*
X1931Y1135D02*
X1938Y1135D01*
X1289Y1134D02*
X1296Y1134D01*
X1931Y1134D02*
X1938Y1134D01*
X1289Y1133D02*
X1296Y1133D01*
X1931Y1133D02*
X1938Y1133D01*
X1289Y1132D02*
X1296Y1132D01*
X1931Y1132D02*
X1938Y1132D01*
X1289Y1131D02*
X1296Y1131D01*
X1931Y1131D02*
X1938Y1131D01*
X1289Y1130D02*
X1296Y1130D01*
X1931Y1130D02*
X1938Y1130D01*
X1289Y1129D02*
X1296Y1129D01*
X1931Y1129D02*
X1938Y1129D01*
X1289Y1128D02*
X1296Y1128D01*
X1931Y1128D02*
X1938Y1128D01*
X1289Y1127D02*
X1296Y1127D01*
X1931Y1127D02*
X1938Y1127D01*
X1289Y1126D02*
X1296Y1126D01*
X1931Y1126D02*
X1938Y1126D01*
X1289Y1125D02*
X1296Y1125D01*
X1931Y1125D02*
X1938Y1125D01*
X1289Y1124D02*
X1296Y1124D01*
X1931Y1124D02*
X1938Y1124D01*
X1289Y1123D02*
X1296Y1123D01*
X1931Y1123D02*
X1938Y1123D01*
X1289Y1122D02*
X1296Y1122D01*
X1931Y1122D02*
X1938Y1122D01*
X1289Y1121D02*
X1296Y1121D01*
X1931Y1121D02*
X1938Y1121D01*
X1289Y1120D02*
X1296Y1120D01*
X1931Y1120D02*
X1938Y1120D01*
X1289Y1119D02*
X1296Y1119D01*
X1931Y1119D02*
X1938Y1119D01*
X1289Y1118D02*
X1296Y1118D01*
X1931Y1118D02*
X1938Y1118D01*
X1289Y1117D02*
X1296Y1117D01*
X1931Y1117D02*
X1938Y1117D01*
X1289Y1116D02*
X1296Y1116D01*
X1931Y1116D02*
X1938Y1116D01*
X1289Y1115D02*
X1296Y1115D01*
X1931Y1115D02*
X1938Y1115D01*
X1289Y1114D02*
X1296Y1114D01*
X1931Y1114D02*
X1938Y1114D01*
X1289Y1113D02*
X1296Y1113D01*
X1931Y1113D02*
X1938Y1113D01*
X1289Y1112D02*
X1296Y1112D01*
X1931Y1112D02*
X1938Y1112D01*
X1289Y1111D02*
X1296Y1111D01*
X1931Y1111D02*
X1938Y1111D01*
X1289Y1110D02*
X1296Y1110D01*
X1931Y1110D02*
X1938Y1110D01*
X1289Y1109D02*
X1296Y1109D01*
X1931Y1109D02*
X1938Y1109D01*
X1289Y1108D02*
X1296Y1108D01*
X1931Y1108D02*
X1938Y1108D01*
X1289Y1107D02*
X1296Y1107D01*
X1931Y1107D02*
X1938Y1107D01*
X1289Y1106D02*
X1296Y1106D01*
X1931Y1106D02*
X1938Y1106D01*
X1289Y1105D02*
X1296Y1105D01*
X1931Y1105D02*
X1938Y1105D01*
X1289Y1104D02*
X1296Y1104D01*
X1931Y1104D02*
X1938Y1104D01*
X1289Y1103D02*
X1296Y1103D01*
X1931Y1103D02*
X1938Y1103D01*
X1289Y1102D02*
X1296Y1102D01*
X1931Y1102D02*
X1938Y1102D01*
X1289Y1101D02*
X1296Y1101D01*
X1931Y1101D02*
X1938Y1101D01*
X1289Y1100D02*
X1296Y1100D01*
X1931Y1100D02*
X1938Y1100D01*
X1289Y1099D02*
X1296Y1099D01*
X1931Y1099D02*
X1938Y1099D01*
X1289Y1098D02*
X1296Y1098D01*
X1931Y1098D02*
X1938Y1098D01*
X1289Y1097D02*
X1296Y1097D01*
X1931Y1097D02*
X1938Y1097D01*
X1289Y1096D02*
X1296Y1096D01*
X1931Y1096D02*
X1938Y1096D01*
X1289Y1095D02*
X1296Y1095D01*
X1931Y1095D02*
X1938Y1095D01*
X1289Y1094D02*
X1296Y1094D01*
X1931Y1094D02*
X1938Y1094D01*
X1289Y1093D02*
X1296Y1093D01*
X1931Y1093D02*
X1938Y1093D01*
X1289Y1092D02*
X1296Y1092D01*
X1931Y1092D02*
X1938Y1092D01*
X1289Y1091D02*
X1296Y1091D01*
X1931Y1091D02*
X1938Y1091D01*
X1289Y1090D02*
X1296Y1090D01*
X1931Y1090D02*
X1938Y1090D01*
X1289Y1089D02*
X1296Y1089D01*
X1931Y1089D02*
X1938Y1089D01*
X1289Y1088D02*
X1296Y1088D01*
X1931Y1088D02*
X1938Y1088D01*
X1289Y1087D02*
X1296Y1087D01*
X1931Y1087D02*
X1938Y1087D01*
X1289Y1086D02*
X1296Y1086D01*
X1931Y1086D02*
X1938Y1086D01*
X1289Y1085D02*
X1296Y1085D01*
X1931Y1085D02*
X1938Y1085D01*
X1289Y1084D02*
X1296Y1084D01*
X1931Y1084D02*
X1938Y1084D01*
X1289Y1083D02*
X1296Y1083D01*
X1931Y1083D02*
X1938Y1083D01*
X1289Y1082D02*
X1296Y1082D01*
X1931Y1082D02*
X1938Y1082D01*
X1289Y1081D02*
X1296Y1081D01*
X1931Y1081D02*
X1938Y1081D01*
X1289Y1080D02*
X1296Y1080D01*
X1931Y1080D02*
X1938Y1080D01*
X1289Y1079D02*
X1296Y1079D01*
X1931Y1079D02*
X1938Y1079D01*
X1289Y1078D02*
X1296Y1078D01*
X1931Y1078D02*
X1938Y1078D01*
X1289Y1077D02*
X1296Y1077D01*
X1931Y1077D02*
X1938Y1077D01*
X1289Y1076D02*
X1296Y1076D01*
X1931Y1076D02*
X1938Y1076D01*
X1289Y1075D02*
X1296Y1075D01*
X1931Y1075D02*
X1938Y1075D01*
X1289Y1074D02*
X1296Y1074D01*
X1931Y1074D02*
X1938Y1074D01*
X1289Y1073D02*
X1296Y1073D01*
X1931Y1073D02*
X1938Y1073D01*
X1289Y1072D02*
X1296Y1072D01*
X1931Y1072D02*
X1938Y1072D01*
X1289Y1071D02*
X1296Y1071D01*
X1931Y1071D02*
X1938Y1071D01*
X1289Y1070D02*
X1296Y1070D01*
X1931Y1070D02*
X1938Y1070D01*
X1289Y1069D02*
X1296Y1069D01*
X1931Y1069D02*
X1938Y1069D01*
X1289Y1068D02*
X1296Y1068D01*
X1931Y1068D02*
X1938Y1068D01*
X1289Y1067D02*
X1296Y1067D01*
X1931Y1067D02*
X1938Y1067D01*
X1289Y1066D02*
X1296Y1066D01*
X1931Y1066D02*
X1938Y1066D01*
X1289Y1065D02*
X1296Y1065D01*
X1931Y1065D02*
X1938Y1065D01*
X1289Y1064D02*
X1296Y1064D01*
X1931Y1064D02*
X1938Y1064D01*
X1289Y1063D02*
X1296Y1063D01*
X1931Y1063D02*
X1938Y1063D01*
X1289Y1062D02*
X1296Y1062D01*
X1931Y1062D02*
X1938Y1062D01*
X1289Y1061D02*
X1296Y1061D01*
X1931Y1061D02*
X1938Y1061D01*
X1289Y1060D02*
X1296Y1060D01*
X1931Y1060D02*
X1938Y1060D01*
X1289Y1059D02*
X1296Y1059D01*
X1931Y1059D02*
X1938Y1059D01*
X1289Y1058D02*
X1296Y1058D01*
X1931Y1058D02*
X1938Y1058D01*
X1289Y1057D02*
X1296Y1057D01*
X1931Y1057D02*
X1938Y1057D01*
X1289Y1056D02*
X1296Y1056D01*
X1931Y1056D02*
X1938Y1056D01*
X1289Y1055D02*
X1296Y1055D01*
X1931Y1055D02*
X1938Y1055D01*
X1289Y1054D02*
X1296Y1054D01*
X1931Y1054D02*
X1938Y1054D01*
X1289Y1053D02*
X1296Y1053D01*
X1931Y1053D02*
X1938Y1053D01*
X1289Y1052D02*
X1296Y1052D01*
X1931Y1052D02*
X1938Y1052D01*
X1289Y1051D02*
X1296Y1051D01*
X1931Y1051D02*
X1938Y1051D01*
X1289Y1050D02*
X1296Y1050D01*
X1931Y1050D02*
X1938Y1050D01*
X1289Y1049D02*
X1296Y1049D01*
X1931Y1049D02*
X1938Y1049D01*
X1289Y1048D02*
X1296Y1048D01*
X1931Y1048D02*
X1938Y1048D01*
X1289Y1047D02*
X1296Y1047D01*
X1931Y1047D02*
X1938Y1047D01*
X1289Y1046D02*
X1296Y1046D01*
X1931Y1046D02*
X1938Y1046D01*
X1289Y1045D02*
X1296Y1045D01*
X1931Y1045D02*
X1938Y1045D01*
X1289Y1044D02*
X1296Y1044D01*
X1931Y1044D02*
X1938Y1044D01*
X1289Y1043D02*
X1296Y1043D01*
X1931Y1043D02*
X1938Y1043D01*
X1289Y1042D02*
X1296Y1042D01*
X1931Y1042D02*
X1938Y1042D01*
X1289Y1041D02*
X1296Y1041D01*
X1931Y1041D02*
X1938Y1041D01*
X1289Y1040D02*
X1296Y1040D01*
X1931Y1040D02*
X1938Y1040D01*
X1289Y1039D02*
X1296Y1039D01*
X1931Y1039D02*
X1938Y1039D01*
X1289Y1038D02*
X1296Y1038D01*
X1931Y1038D02*
X1938Y1038D01*
X1289Y1037D02*
X1296Y1037D01*
X1931Y1037D02*
X1938Y1037D01*
X1289Y1036D02*
X1296Y1036D01*
X1931Y1036D02*
X1938Y1036D01*
X1289Y1035D02*
X1296Y1035D01*
X1931Y1035D02*
X1938Y1035D01*
X1289Y1034D02*
X1296Y1034D01*
X1931Y1034D02*
X1938Y1034D01*
X1289Y1033D02*
X1296Y1033D01*
X1931Y1033D02*
X1938Y1033D01*
X1289Y1032D02*
X1296Y1032D01*
X1931Y1032D02*
X1938Y1032D01*
X1289Y1031D02*
X1296Y1031D01*
X1931Y1031D02*
X1938Y1031D01*
X1289Y1030D02*
X1296Y1030D01*
X1931Y1030D02*
X1938Y1030D01*
X1289Y1029D02*
X1296Y1029D01*
X1931Y1029D02*
X1938Y1029D01*
X1289Y1028D02*
X1296Y1028D01*
X1931Y1028D02*
X1938Y1028D01*
X1289Y1027D02*
X1296Y1027D01*
X1931Y1027D02*
X1938Y1027D01*
X1289Y1026D02*
X1296Y1026D01*
X1931Y1026D02*
X1938Y1026D01*
X1289Y1025D02*
X1296Y1025D01*
X1931Y1025D02*
X1938Y1025D01*
X1289Y1024D02*
X1296Y1024D01*
X1931Y1024D02*
X1938Y1024D01*
X1289Y1023D02*
X1296Y1023D01*
X1931Y1023D02*
X1938Y1023D01*
X1289Y1022D02*
X1296Y1022D01*
X1931Y1022D02*
X1938Y1022D01*
X1289Y1021D02*
X1296Y1021D01*
X1931Y1021D02*
X1938Y1021D01*
X1289Y1020D02*
X1296Y1020D01*
X1931Y1020D02*
X1938Y1020D01*
X1289Y1019D02*
X1296Y1019D01*
X1931Y1019D02*
X1938Y1019D01*
X1289Y1018D02*
X1296Y1018D01*
X1931Y1018D02*
X1938Y1018D01*
X1289Y1017D02*
X1296Y1017D01*
X1931Y1017D02*
X1938Y1017D01*
X1289Y1016D02*
X1296Y1016D01*
X1931Y1016D02*
X1938Y1016D01*
X1289Y1015D02*
X1296Y1015D01*
X1931Y1015D02*
X1938Y1015D01*
X1289Y1014D02*
X1296Y1014D01*
X1931Y1014D02*
X1938Y1014D01*
X1289Y1013D02*
X1296Y1013D01*
X1931Y1013D02*
X1938Y1013D01*
X1289Y1012D02*
X1296Y1012D01*
X1931Y1012D02*
X1938Y1012D01*
X1289Y1011D02*
X1296Y1011D01*
X1931Y1011D02*
X1938Y1011D01*
X1289Y1010D02*
X1296Y1010D01*
X1931Y1010D02*
X1938Y1010D01*
X1289Y1009D02*
X1296Y1009D01*
X1931Y1009D02*
X1938Y1009D01*
X1289Y1008D02*
X1296Y1008D01*
X1931Y1008D02*
X1938Y1008D01*
X1289Y1007D02*
X1296Y1007D01*
X1931Y1007D02*
X1938Y1007D01*
X1289Y1006D02*
X1296Y1006D01*
X1931Y1006D02*
X1938Y1006D01*
X1289Y1005D02*
X1296Y1005D01*
X1931Y1005D02*
X1938Y1005D01*
X1289Y1004D02*
X1296Y1004D01*
X1931Y1004D02*
X1938Y1004D01*
X1289Y1003D02*
X1296Y1003D01*
X1931Y1003D02*
X1938Y1003D01*
X1289Y1002D02*
X1296Y1002D01*
X1931Y1002D02*
X1938Y1002D01*
X1289Y1001D02*
X1296Y1001D01*
X1931Y1001D02*
X1938Y1001D01*
X1289Y1000D02*
X1296Y1000D01*
X1931Y1000D02*
X1938Y1000D01*
X1289Y999D02*
X1296Y999D01*
X1931Y999D02*
X1938Y999D01*
X1289Y998D02*
X1296Y998D01*
X1931Y998D02*
X1938Y998D01*
X1289Y997D02*
X1296Y997D01*
X1931Y997D02*
X1938Y997D01*
X1289Y996D02*
X1296Y996D01*
X1931Y996D02*
X1938Y996D01*
X1289Y995D02*
X1296Y995D01*
X1931Y995D02*
X1938Y995D01*
X1289Y994D02*
X1296Y994D01*
X1931Y994D02*
X1938Y994D01*
X1289Y993D02*
X1296Y993D01*
X1931Y993D02*
X1938Y993D01*
X1289Y992D02*
X1296Y992D01*
X1931Y992D02*
X1938Y992D01*
X1289Y991D02*
X1296Y991D01*
X1931Y991D02*
X1938Y991D01*
X1289Y990D02*
X1296Y990D01*
X1931Y990D02*
X1938Y990D01*
X1289Y989D02*
X1296Y989D01*
X1931Y989D02*
X1938Y989D01*
X1289Y988D02*
X1296Y988D01*
X1931Y988D02*
X1938Y988D01*
X1289Y987D02*
X1296Y987D01*
X1931Y987D02*
X1938Y987D01*
X1289Y986D02*
X1296Y986D01*
X1931Y986D02*
X1938Y986D01*
X1289Y985D02*
X1296Y985D01*
X1931Y985D02*
X1938Y985D01*
X1289Y984D02*
X1296Y984D01*
X1931Y984D02*
X1938Y984D01*
X1289Y983D02*
X1296Y983D01*
X1931Y983D02*
X1938Y983D01*
X1289Y982D02*
X1296Y982D01*
X1931Y982D02*
X1938Y982D01*
X1289Y981D02*
X1296Y981D01*
X1931Y981D02*
X1938Y981D01*
X1289Y980D02*
X1296Y980D01*
X1931Y980D02*
X1938Y980D01*
X1289Y979D02*
X1296Y979D01*
X1931Y979D02*
X1938Y979D01*
X1289Y978D02*
X1296Y978D01*
X1931Y978D02*
X1938Y978D01*
X1289Y977D02*
X1296Y977D01*
X1931Y977D02*
X1938Y977D01*
X1289Y976D02*
X1296Y976D01*
X1931Y976D02*
X1938Y976D01*
X1289Y975D02*
X1296Y975D01*
X1931Y975D02*
X1938Y975D01*
X1289Y974D02*
X1296Y974D01*
X1931Y974D02*
X1938Y974D01*
X1289Y973D02*
X1296Y973D01*
X1931Y973D02*
X1938Y973D01*
X1289Y972D02*
X1296Y972D01*
X1931Y972D02*
X1938Y972D01*
X1289Y971D02*
X1296Y971D01*
X1931Y971D02*
X1938Y971D01*
X1289Y970D02*
X1296Y970D01*
X1931Y970D02*
X1938Y970D01*
X1289Y969D02*
X1296Y969D01*
X1931Y969D02*
X1938Y969D01*
X1289Y968D02*
X1296Y968D01*
X1931Y968D02*
X1938Y968D01*
X1289Y967D02*
X1296Y967D01*
X1931Y967D02*
X1938Y967D01*
X1289Y966D02*
X1296Y966D01*
X1931Y966D02*
X1938Y966D01*
X1289Y965D02*
X1296Y965D01*
X1931Y965D02*
X1938Y965D01*
X1289Y964D02*
X1296Y964D01*
X1931Y964D02*
X1938Y964D01*
X1289Y963D02*
X1296Y963D01*
X1931Y963D02*
X1938Y963D01*
X1289Y962D02*
X1296Y962D01*
X1931Y962D02*
X1938Y962D01*
X1289Y961D02*
X1296Y961D01*
X1931Y961D02*
X1938Y961D01*
X1289Y960D02*
X1296Y960D01*
X1931Y960D02*
X1938Y960D01*
X1289Y959D02*
X1296Y959D01*
X1931Y959D02*
X1938Y959D01*
X1289Y958D02*
X1296Y958D01*
X1931Y958D02*
X1938Y958D01*
X1289Y957D02*
X1296Y957D01*
X1931Y957D02*
X1938Y957D01*
X1289Y956D02*
X1296Y956D01*
X1931Y956D02*
X1938Y956D01*
X1289Y955D02*
X1296Y955D01*
X1931Y955D02*
X1938Y955D01*
X1289Y954D02*
X1296Y954D01*
X1931Y954D02*
X1938Y954D01*
X1289Y953D02*
X1296Y953D01*
X1931Y953D02*
X1938Y953D01*
X1289Y952D02*
X1296Y952D01*
X1931Y952D02*
X1938Y952D01*
X1289Y951D02*
X1296Y951D01*
X1931Y951D02*
X1938Y951D01*
X1289Y950D02*
X1296Y950D01*
X1931Y950D02*
X1938Y950D01*
X1289Y949D02*
X1296Y949D01*
X1931Y949D02*
X1938Y949D01*
X1289Y948D02*
X1296Y948D01*
X1931Y948D02*
X1938Y948D01*
X1289Y947D02*
X1296Y947D01*
X1931Y947D02*
X1938Y947D01*
X1289Y946D02*
X1296Y946D01*
X1931Y946D02*
X1938Y946D01*
X1289Y945D02*
X1296Y945D01*
X1931Y945D02*
X1938Y945D01*
X1289Y944D02*
X1296Y944D01*
X1931Y944D02*
X1938Y944D01*
X1289Y943D02*
X1296Y943D01*
X1931Y943D02*
X1938Y943D01*
X1289Y942D02*
X1296Y942D01*
X1931Y942D02*
X1938Y942D01*
X1289Y941D02*
X1296Y941D01*
X1931Y941D02*
X1938Y941D01*
X1289Y940D02*
X1296Y940D01*
X1931Y940D02*
X1938Y940D01*
X1289Y939D02*
X1296Y939D01*
X1931Y939D02*
X1938Y939D01*
X1289Y938D02*
X1296Y938D01*
X1931Y938D02*
X1938Y938D01*
X1289Y937D02*
X1296Y937D01*
X1931Y937D02*
X1938Y937D01*
X1289Y936D02*
X1296Y936D01*
X1931Y936D02*
X1938Y936D01*
X1289Y935D02*
X1296Y935D01*
X1931Y935D02*
X1938Y935D01*
X1289Y934D02*
X1296Y934D01*
X1931Y934D02*
X1938Y934D01*
X1289Y933D02*
X1296Y933D01*
X1931Y933D02*
X1938Y933D01*
X1289Y932D02*
X1296Y932D01*
X1931Y932D02*
X1938Y932D01*
X1289Y931D02*
X1296Y931D01*
X1931Y931D02*
X1938Y931D01*
X1289Y930D02*
X1296Y930D01*
X1931Y930D02*
X1938Y930D01*
X1289Y929D02*
X1296Y929D01*
X1931Y929D02*
X1938Y929D01*
X1289Y928D02*
X1296Y928D01*
X1931Y928D02*
X1938Y928D01*
X1289Y927D02*
X1296Y927D01*
X1931Y927D02*
X1938Y927D01*
X1289Y926D02*
X1296Y926D01*
X1931Y926D02*
X1938Y926D01*
X1289Y925D02*
X1296Y925D01*
X1931Y925D02*
X1938Y925D01*
X1289Y924D02*
X1296Y924D01*
X1931Y924D02*
X1938Y924D01*
X1289Y923D02*
X1296Y923D01*
X1931Y923D02*
X1938Y923D01*
X1289Y922D02*
X1296Y922D01*
X1931Y922D02*
X1938Y922D01*
X1289Y921D02*
X1296Y921D01*
X1931Y921D02*
X1938Y921D01*
X1289Y920D02*
X1296Y920D01*
X1931Y920D02*
X1938Y920D01*
X1289Y919D02*
X1296Y919D01*
X1931Y919D02*
X1938Y919D01*
X1289Y918D02*
X1296Y918D01*
X1931Y918D02*
X1938Y918D01*
X1289Y917D02*
X1296Y917D01*
X1931Y917D02*
X1938Y917D01*
X1289Y916D02*
X1296Y916D01*
X1931Y916D02*
X1938Y916D01*
X1289Y915D02*
X1296Y915D01*
X1931Y915D02*
X1938Y915D01*
X1289Y914D02*
X1296Y914D01*
X1931Y914D02*
X1938Y914D01*
X1289Y913D02*
X1296Y913D01*
X1931Y913D02*
X1938Y913D01*
X1289Y912D02*
X1296Y912D01*
X1931Y912D02*
X1938Y912D01*
X1289Y911D02*
X1296Y911D01*
X1931Y911D02*
X1938Y911D01*
X1289Y910D02*
X1296Y910D01*
X1931Y910D02*
X1938Y910D01*
X1289Y909D02*
X1296Y909D01*
X1931Y909D02*
X1938Y909D01*
X1289Y908D02*
X1296Y908D01*
X1931Y908D02*
X1938Y908D01*
X1289Y907D02*
X1296Y907D01*
X1931Y907D02*
X1938Y907D01*
X1289Y906D02*
X1296Y906D01*
X1931Y906D02*
X1938Y906D01*
X1289Y905D02*
X1296Y905D01*
X1931Y905D02*
X1938Y905D01*
X1289Y904D02*
X1296Y904D01*
X1931Y904D02*
X1938Y904D01*
X1289Y903D02*
X1296Y903D01*
X1931Y903D02*
X1938Y903D01*
X1289Y902D02*
X1296Y902D01*
X1931Y902D02*
X1938Y902D01*
X1289Y901D02*
X1296Y901D01*
X1931Y901D02*
X1938Y901D01*
X1289Y900D02*
X1296Y900D01*
X1931Y900D02*
X1938Y900D01*
X1289Y899D02*
X1296Y899D01*
X1931Y899D02*
X1938Y899D01*
X1289Y898D02*
X1296Y898D01*
X1931Y898D02*
X1938Y898D01*
X1289Y897D02*
X1296Y897D01*
X1931Y897D02*
X1938Y897D01*
X1289Y896D02*
X1296Y896D01*
X1931Y896D02*
X1938Y896D01*
X1289Y895D02*
X1296Y895D01*
X1931Y895D02*
X1938Y895D01*
X1289Y894D02*
X1296Y894D01*
X1931Y894D02*
X1938Y894D01*
X1289Y893D02*
X1296Y893D01*
X1931Y893D02*
X1938Y893D01*
X1289Y892D02*
X1296Y892D01*
X1931Y892D02*
X1938Y892D01*
X1289Y891D02*
X1296Y891D01*
X1931Y891D02*
X1938Y891D01*
X1289Y890D02*
X1296Y890D01*
X1931Y890D02*
X1938Y890D01*
X1289Y889D02*
X1296Y889D01*
X1931Y889D02*
X1938Y889D01*
X1289Y888D02*
X1296Y888D01*
X1931Y888D02*
X1938Y888D01*
X1289Y887D02*
X1296Y887D01*
X1931Y887D02*
X1938Y887D01*
X1289Y886D02*
X1296Y886D01*
X1931Y886D02*
X1938Y886D01*
X1289Y885D02*
X1296Y885D01*
X1931Y885D02*
X1938Y885D01*
X1289Y884D02*
X1296Y884D01*
X1931Y884D02*
X1938Y884D01*
X1289Y883D02*
X1296Y883D01*
X1931Y883D02*
X1938Y883D01*
X1289Y882D02*
X1296Y882D01*
X1931Y882D02*
X1938Y882D01*
X1289Y881D02*
X1296Y881D01*
X1931Y881D02*
X1938Y881D01*
X1289Y880D02*
X1296Y880D01*
X1931Y880D02*
X1938Y880D01*
X1289Y879D02*
X1296Y879D01*
X1931Y879D02*
X1938Y879D01*
X1289Y878D02*
X1296Y878D01*
X1931Y878D02*
X1938Y878D01*
X1289Y877D02*
X1296Y877D01*
X1931Y877D02*
X1938Y877D01*
X1289Y876D02*
X1296Y876D01*
X1931Y876D02*
X1938Y876D01*
X1289Y875D02*
X1296Y875D01*
X1931Y875D02*
X1938Y875D01*
X1289Y874D02*
X1296Y874D01*
X1931Y874D02*
X1938Y874D01*
X1289Y873D02*
X1296Y873D01*
X1931Y873D02*
X1938Y873D01*
X1289Y872D02*
X1296Y872D01*
X1931Y872D02*
X1938Y872D01*
X1289Y871D02*
X1296Y871D01*
X1931Y871D02*
X1938Y871D01*
X1289Y870D02*
X1296Y870D01*
X1931Y870D02*
X1938Y870D01*
X1289Y869D02*
X1296Y869D01*
X1931Y869D02*
X1938Y869D01*
X1289Y868D02*
X1296Y868D01*
X1931Y868D02*
X1938Y868D01*
X1289Y867D02*
X1296Y867D01*
X1931Y867D02*
X1938Y867D01*
X1289Y866D02*
X1296Y866D01*
X1931Y866D02*
X1938Y866D01*
X1289Y865D02*
X1296Y865D01*
X1931Y865D02*
X1938Y865D01*
X1289Y864D02*
X1296Y864D01*
X1931Y864D02*
X1938Y864D01*
X1289Y863D02*
X1296Y863D01*
X1931Y863D02*
X1938Y863D01*
X1289Y862D02*
X1296Y862D01*
X1931Y862D02*
X1938Y862D01*
X1289Y861D02*
X1296Y861D01*
X1931Y861D02*
X1938Y861D01*
X1289Y860D02*
X1296Y860D01*
X1931Y860D02*
X1938Y860D01*
X1289Y859D02*
X1296Y859D01*
X1931Y859D02*
X1938Y859D01*
X1289Y858D02*
X1296Y858D01*
X1931Y858D02*
X1938Y858D01*
X1289Y857D02*
X1296Y857D01*
X1931Y857D02*
X1938Y857D01*
X1289Y856D02*
X1296Y856D01*
X1931Y856D02*
X1938Y856D01*
X1289Y855D02*
X1296Y855D01*
X1931Y855D02*
X1938Y855D01*
X1289Y854D02*
X1296Y854D01*
X1931Y854D02*
X1938Y854D01*
X1289Y853D02*
X1296Y853D01*
X1931Y853D02*
X1938Y853D01*
X1289Y852D02*
X1296Y852D01*
X1931Y852D02*
X1938Y852D01*
X1289Y851D02*
X1296Y851D01*
X1931Y851D02*
X1938Y851D01*
X1289Y850D02*
X1296Y850D01*
X1931Y850D02*
X1938Y850D01*
X1289Y849D02*
X1296Y849D01*
X1931Y849D02*
X1938Y849D01*
X1289Y848D02*
X1296Y848D01*
X1931Y848D02*
X1938Y848D01*
X1289Y847D02*
X1296Y847D01*
X1931Y847D02*
X1938Y847D01*
X1289Y846D02*
X1296Y846D01*
X1931Y846D02*
X1938Y846D01*
X1289Y845D02*
X1296Y845D01*
X1931Y845D02*
X1938Y845D01*
X1289Y844D02*
X1296Y844D01*
X1931Y844D02*
X1938Y844D01*
X1289Y843D02*
X1296Y843D01*
X1931Y843D02*
X1938Y843D01*
X1289Y842D02*
X1296Y842D01*
X1931Y842D02*
X1938Y842D01*
X1289Y841D02*
X1296Y841D01*
X1931Y841D02*
X1938Y841D01*
X1289Y840D02*
X1296Y840D01*
X1931Y840D02*
X1938Y840D01*
X1289Y839D02*
X1296Y839D01*
X1931Y839D02*
X1938Y839D01*
X1289Y838D02*
X1296Y838D01*
X1931Y838D02*
X1938Y838D01*
X1289Y837D02*
X1296Y837D01*
X1931Y837D02*
X1938Y837D01*
X1289Y836D02*
X1296Y836D01*
X1931Y836D02*
X1938Y836D01*
X1289Y835D02*
X1296Y835D01*
X1931Y835D02*
X1938Y835D01*
X1289Y834D02*
X1296Y834D01*
X1931Y834D02*
X1938Y834D01*
X1289Y833D02*
X1296Y833D01*
X1931Y833D02*
X1938Y833D01*
X1289Y832D02*
X1296Y832D01*
X1931Y832D02*
X1938Y832D01*
X1289Y831D02*
X1296Y831D01*
X1931Y831D02*
X1938Y831D01*
X1289Y830D02*
X1296Y830D01*
X1931Y830D02*
X1938Y830D01*
X1289Y829D02*
X1296Y829D01*
X1931Y829D02*
X1938Y829D01*
X1289Y828D02*
X1296Y828D01*
X1931Y828D02*
X1938Y828D01*
X1289Y827D02*
X1296Y827D01*
X1931Y827D02*
X1938Y827D01*
X1289Y826D02*
X1296Y826D01*
X1931Y826D02*
X1938Y826D01*
X1289Y825D02*
X1296Y825D01*
X1931Y825D02*
X1938Y825D01*
X1289Y824D02*
X1296Y824D01*
X1931Y824D02*
X1938Y824D01*
X1289Y823D02*
X1296Y823D01*
X1931Y823D02*
X1938Y823D01*
X1289Y822D02*
X1296Y822D01*
X1931Y822D02*
X1938Y822D01*
X1289Y821D02*
X1296Y821D01*
X1931Y821D02*
X1938Y821D01*
X1289Y820D02*
X1296Y820D01*
X1931Y820D02*
X1938Y820D01*
X1289Y819D02*
X1296Y819D01*
X1931Y819D02*
X1938Y819D01*
X1289Y818D02*
X1296Y818D01*
X1931Y818D02*
X1938Y818D01*
X1289Y817D02*
X1296Y817D01*
X1931Y817D02*
X1938Y817D01*
X1289Y816D02*
X1296Y816D01*
X1931Y816D02*
X1938Y816D01*
X1289Y815D02*
X1296Y815D01*
X1931Y815D02*
X1938Y815D01*
X1289Y814D02*
X1296Y814D01*
X1931Y814D02*
X1938Y814D01*
X1289Y813D02*
X1296Y813D01*
X1931Y813D02*
X1938Y813D01*
X1289Y812D02*
X1296Y812D01*
X1931Y812D02*
X1938Y812D01*
X1289Y811D02*
X1296Y811D01*
X1931Y811D02*
X1938Y811D01*
X1289Y810D02*
X1296Y810D01*
X1931Y810D02*
X1938Y810D01*
X1289Y809D02*
X1296Y809D01*
X1931Y809D02*
X1938Y809D01*
X1289Y808D02*
X1296Y808D01*
X1931Y808D02*
X1938Y808D01*
X1289Y807D02*
X1296Y807D01*
X1931Y807D02*
X1938Y807D01*
X1289Y806D02*
X1296Y806D01*
X1931Y806D02*
X1938Y806D01*
X1289Y805D02*
X1296Y805D01*
X1931Y805D02*
X1938Y805D01*
X1289Y804D02*
X1296Y804D01*
X1931Y804D02*
X1938Y804D01*
X1289Y803D02*
X1296Y803D01*
X1931Y803D02*
X1938Y803D01*
X1289Y802D02*
X1296Y802D01*
X1931Y802D02*
X1938Y802D01*
X1289Y801D02*
X1296Y801D01*
X1931Y801D02*
X1938Y801D01*
X1289Y800D02*
X1296Y800D01*
X1931Y800D02*
X1938Y800D01*
X1289Y799D02*
X1296Y799D01*
X1931Y799D02*
X1938Y799D01*
X1289Y798D02*
X1296Y798D01*
X1931Y798D02*
X1938Y798D01*
X1289Y797D02*
X1296Y797D01*
X1931Y797D02*
X1938Y797D01*
X1289Y796D02*
X1296Y796D01*
X1931Y796D02*
X1938Y796D01*
X1289Y795D02*
X1296Y795D01*
X1931Y795D02*
X1938Y795D01*
X1289Y794D02*
X1296Y794D01*
X1931Y794D02*
X1938Y794D01*
X1289Y793D02*
X1296Y793D01*
X1931Y793D02*
X1938Y793D01*
X1289Y792D02*
X1296Y792D01*
X1931Y792D02*
X1938Y792D01*
X1289Y791D02*
X1296Y791D01*
X1931Y791D02*
X1938Y791D01*
X1289Y790D02*
X1296Y790D01*
X1931Y790D02*
X1938Y790D01*
X1289Y789D02*
X1296Y789D01*
X1931Y789D02*
X1938Y789D01*
X1289Y788D02*
X1296Y788D01*
X1931Y788D02*
X1938Y788D01*
X1289Y787D02*
X1296Y787D01*
X1931Y787D02*
X1938Y787D01*
X1289Y786D02*
X1296Y786D01*
X1931Y786D02*
X1938Y786D01*
X1289Y785D02*
X1296Y785D01*
X1931Y785D02*
X1938Y785D01*
X1289Y784D02*
X1296Y784D01*
X1931Y784D02*
X1938Y784D01*
X1289Y783D02*
X1296Y783D01*
X1931Y783D02*
X1938Y783D01*
X1289Y782D02*
X1296Y782D01*
X1931Y782D02*
X1938Y782D01*
X1289Y781D02*
X1296Y781D01*
X1931Y781D02*
X1938Y781D01*
X1289Y780D02*
X1296Y780D01*
X1931Y780D02*
X1938Y780D01*
X1289Y779D02*
X1296Y779D01*
X1931Y779D02*
X1938Y779D01*
X1289Y778D02*
X1296Y778D01*
X1931Y778D02*
X1938Y778D01*
X1289Y777D02*
X1296Y777D01*
X1931Y777D02*
X1938Y777D01*
X1289Y776D02*
X1296Y776D01*
X1931Y776D02*
X1938Y776D01*
X1289Y775D02*
X1296Y775D01*
X1931Y775D02*
X1938Y775D01*
X1289Y774D02*
X1296Y774D01*
X1931Y774D02*
X1938Y774D01*
X1289Y773D02*
X1296Y773D01*
X1931Y773D02*
X1938Y773D01*
X1289Y772D02*
X1296Y772D01*
X1931Y772D02*
X1938Y772D01*
X1289Y771D02*
X1296Y771D01*
X1931Y771D02*
X1938Y771D01*
X1289Y770D02*
X1296Y770D01*
X1931Y770D02*
X1938Y770D01*
X1289Y769D02*
X1296Y769D01*
X1931Y769D02*
X1938Y769D01*
X1289Y768D02*
X1296Y768D01*
X1931Y768D02*
X1938Y768D01*
X1289Y767D02*
X1296Y767D01*
X1931Y767D02*
X1938Y767D01*
X1289Y766D02*
X1296Y766D01*
X1931Y766D02*
X1938Y766D01*
X1289Y765D02*
X1296Y765D01*
X1931Y765D02*
X1938Y765D01*
X1289Y764D02*
X1296Y764D01*
X1931Y764D02*
X1938Y764D01*
X1289Y763D02*
X1296Y763D01*
X1931Y763D02*
X1938Y763D01*
X1289Y762D02*
X1296Y762D01*
X1931Y762D02*
X1938Y762D01*
X1289Y761D02*
X1296Y761D01*
X1931Y761D02*
X1938Y761D01*
X1289Y760D02*
X1296Y760D01*
X1931Y760D02*
X1938Y760D01*
X1289Y759D02*
X1296Y759D01*
X1931Y759D02*
X1938Y759D01*
X1289Y758D02*
X1296Y758D01*
X1931Y758D02*
X1938Y758D01*
X1289Y757D02*
X1296Y757D01*
X1931Y757D02*
X1938Y757D01*
X1289Y756D02*
X1296Y756D01*
X1931Y756D02*
X1938Y756D01*
X1289Y755D02*
X1296Y755D01*
X1931Y755D02*
X1938Y755D01*
X1289Y754D02*
X1296Y754D01*
X1931Y754D02*
X1938Y754D01*
X1289Y753D02*
X1296Y753D01*
X1931Y753D02*
X1938Y753D01*
X1289Y752D02*
X1296Y752D01*
X1931Y752D02*
X1938Y752D01*
X1289Y751D02*
X1296Y751D01*
X1931Y751D02*
X1938Y751D01*
X1289Y750D02*
X1296Y750D01*
X1931Y750D02*
X1938Y750D01*
X1289Y749D02*
X1296Y749D01*
X1931Y749D02*
X1938Y749D01*
X1289Y748D02*
X1296Y748D01*
X1931Y748D02*
X1938Y748D01*
X1289Y747D02*
X1296Y747D01*
X1931Y747D02*
X1938Y747D01*
X1289Y746D02*
X1296Y746D01*
X1931Y746D02*
X1938Y746D01*
X1289Y745D02*
X1296Y745D01*
X1931Y745D02*
X1938Y745D01*
X1289Y744D02*
X1296Y744D01*
X1931Y744D02*
X1938Y744D01*
X1289Y743D02*
X1296Y743D01*
X1931Y743D02*
X1938Y743D01*
X1289Y742D02*
X1296Y742D01*
X1931Y742D02*
X1938Y742D01*
X1289Y741D02*
X1296Y741D01*
X1931Y741D02*
X1938Y741D01*
X1289Y740D02*
X1296Y740D01*
X1931Y740D02*
X1938Y740D01*
X1289Y739D02*
X1296Y739D01*
X1931Y739D02*
X1938Y739D01*
X1289Y738D02*
X1296Y738D01*
X1931Y738D02*
X1938Y738D01*
X1289Y737D02*
X1296Y737D01*
X1931Y737D02*
X1938Y737D01*
X1289Y736D02*
X1296Y736D01*
X1931Y736D02*
X1938Y736D01*
X1289Y735D02*
X1296Y735D01*
X1931Y735D02*
X1938Y735D01*
X1289Y734D02*
X1296Y734D01*
X1931Y734D02*
X1938Y734D01*
X1289Y733D02*
X1296Y733D01*
X1931Y733D02*
X1938Y733D01*
X1289Y732D02*
X1296Y732D01*
X1931Y732D02*
X1938Y732D01*
X1289Y731D02*
X1296Y731D01*
X1931Y731D02*
X1938Y731D01*
X1289Y730D02*
X1296Y730D01*
X1931Y730D02*
X1938Y730D01*
X1289Y729D02*
X1296Y729D01*
X1931Y729D02*
X1938Y729D01*
X1289Y728D02*
X1296Y728D01*
X1931Y728D02*
X1938Y728D01*
X1289Y727D02*
X1296Y727D01*
X1931Y727D02*
X1938Y727D01*
X1289Y726D02*
X1296Y726D01*
X1931Y726D02*
X1938Y726D01*
X1289Y725D02*
X1296Y725D01*
X1931Y725D02*
X1938Y725D01*
X1289Y724D02*
X1296Y724D01*
X1931Y724D02*
X1938Y724D01*
X1289Y723D02*
X1296Y723D01*
X1931Y723D02*
X1938Y723D01*
X1289Y722D02*
X1296Y722D01*
X1931Y722D02*
X1938Y722D01*
X1289Y721D02*
X1296Y721D01*
X1931Y721D02*
X1938Y721D01*
X1289Y720D02*
X1296Y720D01*
X1931Y720D02*
X1938Y720D01*
X1289Y719D02*
X1296Y719D01*
X1931Y719D02*
X1938Y719D01*
X1289Y718D02*
X1296Y718D01*
X1931Y718D02*
X1938Y718D01*
X1289Y717D02*
X1296Y717D01*
X1931Y717D02*
X1938Y717D01*
X1289Y716D02*
X1296Y716D01*
X1931Y716D02*
X1938Y716D01*
X1289Y715D02*
X1296Y715D01*
X1931Y715D02*
X1938Y715D01*
X1289Y714D02*
X1296Y714D01*
X1931Y714D02*
X1938Y714D01*
X1289Y713D02*
X1296Y713D01*
X1931Y713D02*
X1938Y713D01*
X1289Y712D02*
X1296Y712D01*
X1931Y712D02*
X1938Y712D01*
X1289Y711D02*
X1296Y711D01*
X1931Y711D02*
X1938Y711D01*
X1289Y710D02*
X1296Y710D01*
X1931Y710D02*
X1938Y710D01*
X1289Y709D02*
X1296Y709D01*
X1931Y709D02*
X1938Y709D01*
X1289Y708D02*
X1296Y708D01*
X1931Y708D02*
X1938Y708D01*
X1289Y707D02*
X1296Y707D01*
X1931Y707D02*
X1938Y707D01*
X1289Y706D02*
X1296Y706D01*
X1931Y706D02*
X1938Y706D01*
X1289Y705D02*
X1296Y705D01*
X1931Y705D02*
X1938Y705D01*
X1289Y704D02*
X1296Y704D01*
X1931Y704D02*
X1938Y704D01*
X1289Y703D02*
X1296Y703D01*
X1931Y703D02*
X1938Y703D01*
X1289Y702D02*
X1296Y702D01*
X1931Y702D02*
X1938Y702D01*
X1289Y701D02*
X1296Y701D01*
X1931Y701D02*
X1938Y701D01*
X1289Y700D02*
X1296Y700D01*
X1931Y700D02*
X1938Y700D01*
X1289Y699D02*
X1296Y699D01*
X1931Y699D02*
X1938Y699D01*
X1289Y698D02*
X1296Y698D01*
X1931Y698D02*
X1938Y698D01*
X1289Y697D02*
X1296Y697D01*
X1931Y697D02*
X1938Y697D01*
X1289Y696D02*
X1296Y696D01*
X1931Y696D02*
X1938Y696D01*
X1289Y695D02*
X1296Y695D01*
X1931Y695D02*
X1938Y695D01*
X1289Y694D02*
X1296Y694D01*
X1931Y694D02*
X1938Y694D01*
X1289Y693D02*
X1296Y693D01*
X1931Y693D02*
X1938Y693D01*
X1289Y692D02*
X1296Y692D01*
X1931Y692D02*
X1938Y692D01*
X1289Y691D02*
X1296Y691D01*
X1931Y691D02*
X1938Y691D01*
X1289Y690D02*
X1296Y690D01*
X1931Y690D02*
X1938Y690D01*
X1289Y689D02*
X1296Y689D01*
X1931Y689D02*
X1938Y689D01*
X1289Y688D02*
X1296Y688D01*
X1931Y688D02*
X1938Y688D01*
X1289Y687D02*
X1296Y687D01*
X1931Y687D02*
X1938Y687D01*
X1289Y686D02*
X1296Y686D01*
X1931Y686D02*
X1938Y686D01*
X1289Y685D02*
X1296Y685D01*
X1931Y685D02*
X1938Y685D01*
X1289Y684D02*
X1296Y684D01*
X1931Y684D02*
X1938Y684D01*
X1289Y683D02*
X1296Y683D01*
X1931Y683D02*
X1938Y683D01*
X1289Y682D02*
X1296Y682D01*
X1931Y682D02*
X1938Y682D01*
X1289Y681D02*
X1296Y681D01*
X1931Y681D02*
X1938Y681D01*
X1289Y680D02*
X1296Y680D01*
X1931Y680D02*
X1938Y680D01*
X1289Y679D02*
X1296Y679D01*
X1931Y679D02*
X1938Y679D01*
X1289Y678D02*
X1296Y678D01*
X1931Y678D02*
X1938Y678D01*
X1289Y677D02*
X1296Y677D01*
X1931Y677D02*
X1938Y677D01*
X1289Y676D02*
X1296Y676D01*
X1931Y676D02*
X1938Y676D01*
X1289Y675D02*
X1296Y675D01*
X1931Y675D02*
X1938Y675D01*
X1289Y674D02*
X1296Y674D01*
X1931Y674D02*
X1938Y674D01*
X1289Y673D02*
X1296Y673D01*
X1931Y673D02*
X1938Y673D01*
X1289Y672D02*
X1296Y672D01*
X1931Y672D02*
X1938Y672D01*
X1289Y671D02*
X1296Y671D01*
X1931Y671D02*
X1938Y671D01*
X1289Y670D02*
X1296Y670D01*
X1931Y670D02*
X1938Y670D01*
X1289Y669D02*
X1296Y669D01*
X1931Y669D02*
X1938Y669D01*
X1289Y668D02*
X1296Y668D01*
X1931Y668D02*
X1938Y668D01*
X1289Y667D02*
X1296Y667D01*
X1931Y667D02*
X1938Y667D01*
X1289Y666D02*
X1296Y666D01*
X1931Y666D02*
X1938Y666D01*
X1289Y665D02*
X1296Y665D01*
X1931Y665D02*
X1938Y665D01*
X1289Y664D02*
X1296Y664D01*
X1931Y664D02*
X1938Y664D01*
X1289Y663D02*
X1296Y663D01*
X1931Y663D02*
X1938Y663D01*
X1289Y662D02*
X1296Y662D01*
X1931Y662D02*
X1938Y662D01*
X1289Y661D02*
X1296Y661D01*
X1931Y661D02*
X1938Y661D01*
X1289Y660D02*
X1296Y660D01*
X1931Y660D02*
X1938Y660D01*
X1289Y659D02*
X1296Y659D01*
X1931Y659D02*
X1938Y659D01*
X1289Y658D02*
X1296Y658D01*
X1931Y658D02*
X1938Y658D01*
X1289Y657D02*
X1296Y657D01*
X1931Y657D02*
X1938Y657D01*
X1289Y656D02*
X1296Y656D01*
X1931Y656D02*
X1938Y656D01*
X1289Y655D02*
X1296Y655D01*
X1931Y655D02*
X1938Y655D01*
X1289Y654D02*
X1296Y654D01*
X1931Y654D02*
X1938Y654D01*
X1289Y653D02*
X1296Y653D01*
X1931Y653D02*
X1938Y653D01*
X1289Y652D02*
X1296Y652D01*
X1931Y652D02*
X1938Y652D01*
X1289Y651D02*
X1296Y651D01*
X1931Y651D02*
X1938Y651D01*
X1289Y650D02*
X1296Y650D01*
X1931Y650D02*
X1938Y650D01*
X1289Y649D02*
X1296Y649D01*
X1931Y649D02*
X1938Y649D01*
X1289Y648D02*
X1296Y648D01*
X1931Y648D02*
X1938Y648D01*
X1289Y647D02*
X1296Y647D01*
X1931Y647D02*
X1938Y647D01*
X1289Y646D02*
X1296Y646D01*
X1931Y646D02*
X1938Y646D01*
X1289Y645D02*
X1296Y645D01*
X1931Y645D02*
X1938Y645D01*
X1289Y644D02*
X1296Y644D01*
X1931Y644D02*
X1938Y644D01*
X1289Y643D02*
X1296Y643D01*
X1931Y643D02*
X1938Y643D01*
X1289Y642D02*
X1296Y642D01*
X1931Y642D02*
X1938Y642D01*
X1289Y641D02*
X1296Y641D01*
X1931Y641D02*
X1938Y641D01*
X1289Y640D02*
X1296Y640D01*
X1931Y640D02*
X1938Y640D01*
X1289Y639D02*
X1296Y639D01*
X1931Y639D02*
X1938Y639D01*
X1289Y638D02*
X1296Y638D01*
X1931Y638D02*
X1938Y638D01*
X1289Y637D02*
X1296Y637D01*
X1931Y637D02*
X1938Y637D01*
X1289Y636D02*
X1296Y636D01*
X1931Y636D02*
X1938Y636D01*
X1289Y635D02*
X1296Y635D01*
X1931Y635D02*
X1938Y635D01*
X1289Y634D02*
X1296Y634D01*
X1931Y634D02*
X1938Y634D01*
X1289Y633D02*
X1296Y633D01*
X1931Y633D02*
X1938Y633D01*
X1289Y632D02*
X1296Y632D01*
X1931Y632D02*
X1938Y632D01*
X1289Y631D02*
X1296Y631D01*
X1931Y631D02*
X1938Y631D01*
X1289Y630D02*
X1296Y630D01*
X1931Y630D02*
X1938Y630D01*
X1289Y629D02*
X1296Y629D01*
X1931Y629D02*
X1938Y629D01*
X1289Y628D02*
X1296Y628D01*
X1931Y628D02*
X1938Y628D01*
X1289Y627D02*
X1296Y627D01*
X1931Y627D02*
X1938Y627D01*
X1289Y626D02*
X1296Y626D01*
X1931Y626D02*
X1938Y626D01*
X1289Y625D02*
X1296Y625D01*
X1931Y625D02*
X1938Y625D01*
X1289Y624D02*
X1296Y624D01*
X1931Y624D02*
X1938Y624D01*
X1289Y623D02*
X1296Y623D01*
X1931Y623D02*
X1938Y623D01*
X1289Y622D02*
X1296Y622D01*
X1931Y622D02*
X1938Y622D01*
X1289Y621D02*
X1296Y621D01*
X1931Y621D02*
X1938Y621D01*
X1289Y620D02*
X1296Y620D01*
X1931Y620D02*
X1938Y620D01*
X1289Y619D02*
X1296Y619D01*
X1931Y619D02*
X1938Y619D01*
X1289Y618D02*
X1296Y618D01*
X1931Y618D02*
X1938Y618D01*
X1289Y617D02*
X1296Y617D01*
X1931Y617D02*
X1938Y617D01*
X1289Y616D02*
X1296Y616D01*
X1931Y616D02*
X1938Y616D01*
X1289Y615D02*
X1296Y615D01*
X1931Y615D02*
X1938Y615D01*
X1289Y614D02*
X1296Y614D01*
X1931Y614D02*
X1938Y614D01*
X1289Y613D02*
X1296Y613D01*
X1931Y613D02*
X1938Y613D01*
X1289Y612D02*
X1296Y612D01*
X1931Y612D02*
X1938Y612D01*
X1289Y611D02*
X1296Y611D01*
X1931Y611D02*
X1938Y611D01*
X1289Y610D02*
X1296Y610D01*
X1931Y610D02*
X1938Y610D01*
X1289Y609D02*
X1296Y609D01*
X1931Y609D02*
X1938Y609D01*
X1289Y608D02*
X1296Y608D01*
X1931Y608D02*
X1938Y608D01*
X1289Y607D02*
X1296Y607D01*
X1931Y607D02*
X1938Y607D01*
X1289Y606D02*
X1296Y606D01*
X1931Y606D02*
X1938Y606D01*
X1289Y605D02*
X1296Y605D01*
X1931Y605D02*
X1938Y605D01*
X1289Y604D02*
X1296Y604D01*
X1931Y604D02*
X1938Y604D01*
X1289Y603D02*
X1296Y603D01*
X1931Y603D02*
X1938Y603D01*
X1289Y602D02*
X1296Y602D01*
X1931Y602D02*
X1938Y602D01*
X1289Y601D02*
X1296Y601D01*
X1931Y601D02*
X1938Y601D01*
X1289Y600D02*
X1296Y600D01*
X1931Y600D02*
X1938Y600D01*
X1289Y599D02*
X1296Y599D01*
X1931Y599D02*
X1938Y599D01*
X1289Y598D02*
X1296Y598D01*
X1931Y598D02*
X1938Y598D01*
X1289Y597D02*
X1296Y597D01*
X1931Y597D02*
X1938Y597D01*
X1289Y596D02*
X1296Y596D01*
X1931Y596D02*
X1938Y596D01*
X1289Y595D02*
X1296Y595D01*
X1931Y595D02*
X1938Y595D01*
X1289Y594D02*
X1296Y594D01*
X1931Y594D02*
X1938Y594D01*
X1289Y593D02*
X1296Y593D01*
X1931Y593D02*
X1938Y593D01*
X1289Y592D02*
X1296Y592D01*
X1931Y592D02*
X1938Y592D01*
X1289Y591D02*
X1296Y591D01*
X1931Y591D02*
X1938Y591D01*
X1289Y590D02*
X1296Y590D01*
X1931Y590D02*
X1938Y590D01*
X1289Y589D02*
X1296Y589D01*
X1931Y589D02*
X1938Y589D01*
X1289Y588D02*
X1296Y588D01*
X1931Y588D02*
X1938Y588D01*
X1289Y587D02*
X1296Y587D01*
X1931Y587D02*
X1938Y587D01*
X1289Y586D02*
X1296Y586D01*
X1931Y586D02*
X1938Y586D01*
X1289Y585D02*
X1296Y585D01*
X1931Y585D02*
X1938Y585D01*
X1289Y584D02*
X1296Y584D01*
X1931Y584D02*
X1938Y584D01*
X1289Y583D02*
X1296Y583D01*
X1931Y583D02*
X1938Y583D01*
X1289Y582D02*
X1296Y582D01*
X1931Y582D02*
X1938Y582D01*
X1289Y581D02*
X1296Y581D01*
X1931Y581D02*
X1938Y581D01*
X1289Y580D02*
X1296Y580D01*
X1931Y580D02*
X1938Y580D01*
X1289Y579D02*
X1296Y579D01*
X1931Y579D02*
X1938Y579D01*
X1289Y578D02*
X1296Y578D01*
X1931Y578D02*
X1938Y578D01*
X1289Y577D02*
X1296Y577D01*
X1931Y577D02*
X1938Y577D01*
X1289Y576D02*
X1296Y576D01*
X1931Y576D02*
X1938Y576D01*
X1289Y575D02*
X1296Y575D01*
X1931Y575D02*
X1938Y575D01*
X1289Y574D02*
X1296Y574D01*
X1931Y574D02*
X1938Y574D01*
X1289Y573D02*
X1296Y573D01*
X1931Y573D02*
X1938Y573D01*
X1289Y572D02*
X1296Y572D01*
X1931Y572D02*
X1938Y572D01*
X1289Y571D02*
X1296Y571D01*
X1931Y571D02*
X1938Y571D01*
X1289Y570D02*
X1296Y570D01*
X1931Y570D02*
X1938Y570D01*
X1289Y569D02*
X1296Y569D01*
X1931Y569D02*
X1938Y569D01*
X1289Y568D02*
X1296Y568D01*
X1931Y568D02*
X1938Y568D01*
X1289Y567D02*
X1296Y567D01*
X1931Y567D02*
X1938Y567D01*
X1289Y566D02*
X1296Y566D01*
X1931Y566D02*
X1938Y566D01*
X1289Y565D02*
X1296Y565D01*
X1931Y565D02*
X1938Y565D01*
X1289Y564D02*
X1296Y564D01*
X1931Y564D02*
X1938Y564D01*
X1289Y563D02*
X1296Y563D01*
X1931Y563D02*
X1938Y563D01*
X1289Y562D02*
X1296Y562D01*
X1931Y562D02*
X1938Y562D01*
X1289Y561D02*
X1296Y561D01*
X1931Y561D02*
X1938Y561D01*
X1289Y560D02*
X1296Y560D01*
X1931Y560D02*
X1938Y560D01*
X1289Y559D02*
X1296Y559D01*
X1931Y559D02*
X1938Y559D01*
X1289Y558D02*
X1296Y558D01*
X1931Y558D02*
X1938Y558D01*
X1289Y557D02*
X1296Y557D01*
X1931Y557D02*
X1938Y557D01*
X1289Y556D02*
X1296Y556D01*
X1931Y556D02*
X1938Y556D01*
X1289Y555D02*
X1296Y555D01*
X1931Y555D02*
X1938Y555D01*
X1289Y554D02*
X1296Y554D01*
X1931Y554D02*
X1938Y554D01*
X1289Y553D02*
X1296Y553D01*
X1931Y553D02*
X1938Y553D01*
X1289Y552D02*
X1296Y552D01*
X1931Y552D02*
X1938Y552D01*
X1289Y551D02*
X1296Y551D01*
X1931Y551D02*
X1938Y551D01*
X1289Y550D02*
X1296Y550D01*
X1931Y550D02*
X1938Y550D01*
X1289Y549D02*
X1296Y549D01*
X1931Y549D02*
X1938Y549D01*
X1289Y548D02*
X1296Y548D01*
X1931Y548D02*
X1938Y548D01*
X1289Y547D02*
X1296Y547D01*
X1931Y547D02*
X1938Y547D01*
X1289Y546D02*
X1296Y546D01*
X1931Y546D02*
X1938Y546D01*
X1289Y545D02*
X1296Y545D01*
X1931Y545D02*
X1938Y545D01*
X1289Y544D02*
X1296Y544D01*
X1931Y544D02*
X1938Y544D01*
X1289Y543D02*
X1296Y543D01*
X1931Y543D02*
X1938Y543D01*
X1289Y542D02*
X1296Y542D01*
X1931Y542D02*
X1938Y542D01*
X1289Y541D02*
X1296Y541D01*
X1931Y541D02*
X1938Y541D01*
X1289Y540D02*
X1296Y540D01*
X1931Y540D02*
X1938Y540D01*
X1289Y539D02*
X1296Y539D01*
X1931Y539D02*
X1938Y539D01*
X1289Y538D02*
X1296Y538D01*
X1931Y538D02*
X1938Y538D01*
X1289Y537D02*
X1296Y537D01*
X1931Y537D02*
X1938Y537D01*
X1289Y536D02*
X1296Y536D01*
X1931Y536D02*
X1938Y536D01*
X1289Y535D02*
X1296Y535D01*
X1931Y535D02*
X1938Y535D01*
X1289Y534D02*
X1296Y534D01*
X1931Y534D02*
X1938Y534D01*
X1289Y533D02*
X1296Y533D01*
X1931Y533D02*
X1938Y533D01*
X1289Y532D02*
X1296Y532D01*
X1931Y532D02*
X1938Y532D01*
X1289Y531D02*
X1296Y531D01*
X1931Y531D02*
X1938Y531D01*
X1289Y530D02*
X1296Y530D01*
X1931Y530D02*
X1938Y530D01*
X1289Y529D02*
X1296Y529D01*
X1931Y529D02*
X1938Y529D01*
X1289Y528D02*
X1296Y528D01*
X1931Y528D02*
X1938Y528D01*
X1289Y527D02*
X1296Y527D01*
X1931Y527D02*
X1938Y527D01*
X1289Y526D02*
X1296Y526D01*
X1931Y526D02*
X1938Y526D01*
X1289Y525D02*
X1296Y525D01*
X1931Y525D02*
X1938Y525D01*
X1289Y524D02*
X1296Y524D01*
X1931Y524D02*
X1938Y524D01*
X1289Y523D02*
X1296Y523D01*
X1931Y523D02*
X1938Y523D01*
X1289Y522D02*
X1296Y522D01*
X1931Y522D02*
X1938Y522D01*
X1289Y521D02*
X1296Y521D01*
X1931Y521D02*
X1938Y521D01*
X1289Y520D02*
X1296Y520D01*
X1931Y520D02*
X1938Y520D01*
X1289Y519D02*
X1296Y519D01*
X1931Y519D02*
X1938Y519D01*
X1289Y518D02*
X1296Y518D01*
X1931Y518D02*
X1938Y518D01*
X1289Y517D02*
X1296Y517D01*
X1931Y517D02*
X1938Y517D01*
X1289Y516D02*
X1296Y516D01*
X1931Y516D02*
X1938Y516D01*
X1289Y515D02*
X1296Y515D01*
X1931Y515D02*
X1938Y515D01*
X1289Y514D02*
X1938Y514D01*
X1289Y513D02*
X1938Y513D01*
X1289Y512D02*
X1938Y512D01*
X1289Y511D02*
X1938Y511D01*
X1289Y510D02*
X1938Y510D01*
X1289Y509D02*
X1938Y509D01*
X1289Y508D02*
X1938Y508D01*
X1289Y507D02*
X1938Y507D01*
D02*
G04 End of Silk0*
M02*