G04 MADE WITH FRITZING*
G04 WWW.FRITZING.ORG*
G04 DOUBLE SIDED*
G04 HOLES PLATED*
G04 CONTOUR ON CENTER OF CONTOUR VECTOR*
%ASAXBY*%
%FSLAX23Y23*%
%MOIN*%
%OFA0B0*%
%SFA1.0B1.0*%
%ADD10C,0.074000*%
%ADD11C,0.080000*%
%ADD12C,0.075000*%
%ADD13C,0.062992*%
%ADD14C,0.070000*%
%ADD15C,0.075433*%
%ADD16R,0.080000X0.080000*%
%ADD17R,0.069972X0.070000*%
%ADD18C,0.024000*%
%ADD19C,0.015748*%
%ADD20R,0.001000X0.001000*%
%LNCOPPER0*%
G90*
G70*
G54D10*
X1864Y2206D03*
X1764Y2206D03*
X1664Y2206D03*
X1564Y2206D03*
X1464Y2206D03*
X1364Y2206D03*
X214Y131D03*
X214Y387D03*
X392Y131D03*
X392Y387D03*
X2064Y1306D03*
X1989Y1356D03*
X2064Y1406D03*
X2064Y1006D03*
X1989Y1056D03*
X2064Y1106D03*
X1039Y581D03*
X964Y631D03*
X1039Y681D03*
X2064Y331D03*
X1989Y381D03*
X2064Y431D03*
X2064Y706D03*
X1989Y756D03*
X2064Y806D03*
X2064Y1631D03*
X1989Y1681D03*
X2064Y1731D03*
X2089Y2106D03*
X2014Y2156D03*
X2089Y2206D03*
G54D11*
X2064Y181D03*
X1926Y181D03*
X2288Y1056D03*
X2288Y918D03*
X2288Y1456D03*
X2288Y1318D03*
X1664Y181D03*
X1526Y181D03*
X1264Y181D03*
X1126Y181D03*
X789Y181D03*
X651Y181D03*
X2288Y256D03*
X2288Y118D03*
X2288Y656D03*
X2288Y518D03*
X2288Y1856D03*
X2288Y1718D03*
X2239Y2206D03*
X2239Y2068D03*
G54D12*
X812Y1787D03*
X1212Y1787D03*
X812Y1587D03*
X1212Y1587D03*
X814Y1281D03*
X1214Y1281D03*
X964Y356D03*
X564Y356D03*
X812Y1987D03*
X1212Y1987D03*
X814Y1681D03*
X1214Y1681D03*
X814Y1481D03*
X1214Y1481D03*
X814Y1181D03*
X1214Y1181D03*
X814Y1381D03*
X1214Y1381D03*
X814Y1081D03*
X1214Y1081D03*
X812Y1887D03*
X1212Y1887D03*
G54D13*
X1095Y2162D03*
X1164Y2231D03*
G54D14*
X664Y606D03*
X664Y706D03*
X664Y806D03*
X664Y906D03*
X664Y1006D03*
X664Y1106D03*
X664Y1206D03*
X664Y1306D03*
X664Y1406D03*
X664Y1506D03*
X664Y1606D03*
X664Y1706D03*
X664Y1806D03*
X664Y1906D03*
X664Y2006D03*
X64Y606D03*
X64Y706D03*
X64Y806D03*
X64Y906D03*
X64Y1006D03*
X64Y1106D03*
X64Y1206D03*
X64Y1306D03*
X64Y1406D03*
X64Y1506D03*
X64Y1606D03*
X64Y1706D03*
X64Y1806D03*
X64Y1906D03*
X64Y2006D03*
G54D15*
X1064Y931D03*
X964Y2081D03*
X1214Y2081D03*
X964Y831D03*
X1639Y431D03*
G54D16*
X2064Y181D03*
X2288Y1056D03*
X2288Y1456D03*
X1664Y181D03*
X1264Y181D03*
X789Y181D03*
X2288Y256D03*
X2288Y656D03*
X2288Y1856D03*
X2239Y2206D03*
G54D17*
X664Y606D03*
G54D18*
X1094Y2135D02*
X1091Y2057D01*
D02*
X1091Y2057D02*
X1187Y2001D01*
D02*
X2115Y2100D02*
X2209Y2076D01*
D02*
X964Y385D02*
X964Y604D01*
D02*
X1066Y681D02*
X1465Y680D01*
D02*
X1465Y680D02*
X1763Y1030D01*
D02*
X1763Y1030D02*
X1764Y2175D01*
D02*
X788Y2002D02*
X665Y2082D01*
D02*
X440Y2082D02*
X366Y2008D01*
D02*
X665Y2082D02*
X440Y2082D01*
D02*
X366Y2008D02*
X93Y2006D01*
D02*
X2089Y996D02*
X2259Y930D01*
D02*
X686Y1588D02*
X792Y1500D01*
D02*
X790Y1805D02*
X687Y1888D01*
D02*
X792Y1200D02*
X686Y1288D01*
D02*
X686Y1788D02*
X792Y1700D01*
D02*
X93Y807D02*
X165Y808D01*
D02*
X143Y408D02*
X140Y182D01*
D02*
X159Y663D02*
X143Y408D01*
D02*
X165Y808D02*
X159Y663D01*
D02*
X140Y182D02*
X188Y149D01*
D02*
X93Y1606D02*
X214Y1607D01*
D02*
X214Y1607D02*
X338Y1480D01*
D02*
X514Y355D02*
X536Y356D01*
D02*
X439Y456D02*
X514Y355D01*
D02*
X338Y456D02*
X439Y456D01*
D02*
X338Y1480D02*
X338Y456D01*
D02*
X1243Y1281D02*
X1365Y1280D01*
D02*
X1365Y1280D02*
X1365Y1080D01*
D02*
X1365Y1080D02*
X1243Y1081D01*
D02*
X1241Y1886D02*
X1365Y1882D01*
D02*
X1365Y1882D02*
X1365Y1280D01*
D02*
X1365Y1280D02*
X1243Y1281D01*
D02*
X686Y1188D02*
X792Y1100D01*
D02*
X1099Y196D02*
X813Y355D01*
D02*
X813Y355D02*
X814Y1053D01*
D02*
X1506Y157D02*
X1464Y107D01*
D02*
X1464Y107D02*
X914Y107D01*
D02*
X915Y206D02*
X764Y308D01*
D02*
X764Y308D02*
X764Y456D01*
D02*
X914Y107D02*
X915Y206D01*
D02*
X764Y456D02*
X690Y530D01*
D02*
X690Y530D02*
X563Y530D01*
D02*
X563Y530D02*
X563Y1406D01*
D02*
X563Y1406D02*
X635Y1406D01*
D02*
X653Y212D02*
X665Y382D01*
D02*
X588Y456D02*
X514Y456D01*
D02*
X514Y456D02*
X439Y556D01*
D02*
X439Y556D02*
X464Y1881D01*
D02*
X665Y382D02*
X588Y456D01*
D02*
X464Y1881D02*
X563Y2008D01*
D02*
X563Y2008D02*
X635Y2007D01*
D02*
X2094Y191D02*
X2259Y246D01*
D02*
X2257Y1456D02*
X2214Y1457D01*
D02*
X2214Y1457D02*
X2214Y1131D01*
D02*
X2214Y1131D02*
X2266Y1078D01*
D02*
X2263Y1837D02*
X2189Y1783D01*
D02*
X2189Y1783D02*
X2238Y1607D01*
D02*
X2238Y1607D02*
X2278Y1486D01*
D02*
X2270Y2206D02*
X2314Y2205D01*
D02*
X2314Y2205D02*
X2314Y2057D01*
D02*
X2314Y2057D02*
X2292Y1887D01*
D02*
X1564Y2175D02*
X1563Y1107D01*
D02*
X1415Y931D02*
X1093Y931D01*
D02*
X1563Y1107D02*
X1415Y931D01*
D02*
X1695Y181D02*
X1895Y181D01*
D02*
X2064Y458D02*
X2066Y558D01*
D02*
X2066Y558D02*
X1964Y558D01*
D02*
X1964Y558D02*
X1890Y406D01*
D02*
X1890Y406D02*
X1921Y212D01*
D02*
X2088Y794D02*
X2165Y757D01*
D02*
X2165Y757D02*
X2164Y558D01*
D02*
X2066Y558D02*
X2064Y458D01*
D02*
X2164Y558D02*
X2066Y558D01*
D02*
X2090Y1400D02*
X2165Y1382D01*
D02*
X2165Y1382D02*
X2165Y1157D01*
D02*
X2165Y1157D02*
X2088Y1118D01*
D02*
X2091Y1731D02*
X2140Y1730D01*
D02*
X2164Y1631D02*
X2164Y1455D01*
D02*
X2140Y1730D02*
X2164Y1631D01*
D02*
X2164Y1455D02*
X2088Y1418D01*
D02*
X2070Y2225D02*
X2013Y2282D01*
D02*
X1939Y2282D02*
X1939Y2008D01*
D02*
X2013Y2282D02*
X1939Y2282D01*
D02*
X1939Y2008D02*
X2053Y1756D01*
D02*
X1288Y201D02*
X1415Y305D01*
D02*
X1415Y305D02*
X1538Y305D01*
D02*
X1538Y305D02*
X1642Y203D01*
D02*
X1265Y2281D02*
X1665Y2282D01*
D02*
X1665Y2282D02*
X1664Y2237D01*
D02*
X1188Y2243D02*
X1265Y2281D01*
D02*
X964Y860D02*
X964Y2052D01*
D02*
X1464Y2082D02*
X1243Y2081D01*
D02*
X1464Y2175D02*
X1464Y2082D01*
D02*
X1865Y681D02*
X1658Y453D01*
D02*
X1864Y2175D02*
X1865Y681D01*
D02*
X1665Y2282D02*
X2013Y2282D01*
D02*
X2013Y2282D02*
X2070Y2225D01*
D02*
X1664Y2237D02*
X1665Y2282D01*
G54D19*
X1128Y2162D02*
X1095Y2128D01*
X1061Y2162D01*
X1095Y2195D01*
X1128Y2162D01*
D02*
G54D20*
X2319Y1045D02*
X2319Y1045D01*
X2335Y758D02*
X2362Y758D01*
X2335Y757D02*
X2362Y757D01*
X2334Y756D02*
X2361Y756D01*
X2333Y755D02*
X2360Y755D01*
X2333Y754D02*
X2360Y754D01*
X2332Y753D02*
X2359Y753D01*
X2332Y752D02*
X2359Y752D01*
X2331Y751D02*
X2358Y751D01*
X2330Y750D02*
X2357Y750D01*
X2330Y749D02*
X2357Y749D01*
X2329Y748D02*
X2356Y748D01*
X2329Y747D02*
X2356Y747D01*
X2328Y746D02*
X2355Y746D01*
X2327Y745D02*
X2354Y745D01*
X2327Y744D02*
X2354Y744D01*
X2326Y743D02*
X2353Y743D01*
X2326Y742D02*
X2353Y742D01*
X2325Y741D02*
X2352Y741D01*
X2324Y740D02*
X2351Y740D01*
X2324Y739D02*
X2351Y739D01*
X2323Y738D02*
X2350Y738D01*
X2323Y737D02*
X2350Y737D01*
X2322Y736D02*
X2349Y736D01*
X2321Y735D02*
X2348Y735D01*
X2321Y734D02*
X2348Y734D01*
X2320Y733D02*
X2347Y733D01*
X2319Y732D02*
X2347Y732D01*
X2319Y731D02*
X2346Y731D01*
X2318Y730D02*
X2345Y730D01*
X2318Y729D02*
X2345Y729D01*
X2317Y728D02*
X2344Y728D01*
X2316Y727D02*
X2344Y727D01*
X2316Y726D02*
X2343Y726D01*
X2315Y725D02*
X2342Y725D01*
X2315Y724D02*
X2342Y724D01*
X2314Y723D02*
X2341Y723D01*
X2313Y722D02*
X2340Y722D01*
X2313Y721D02*
X2340Y721D01*
X2312Y720D02*
X2339Y720D01*
X2312Y719D02*
X2339Y719D01*
X2311Y718D02*
X2338Y718D01*
X2310Y717D02*
X2337Y717D01*
X2310Y716D02*
X2337Y716D01*
X2309Y715D02*
X2336Y715D01*
X2309Y714D02*
X2336Y714D01*
X2308Y713D02*
X2335Y713D01*
X2307Y712D02*
X2334Y712D01*
X2307Y711D02*
X2334Y711D01*
X2306Y710D02*
X2333Y710D01*
X2306Y709D02*
X2333Y709D01*
X2305Y708D02*
X2332Y708D01*
X2304Y707D02*
X2331Y707D01*
X2304Y706D02*
X2331Y706D01*
X2303Y705D02*
X2330Y705D01*
X2303Y704D02*
X2330Y704D01*
X2302Y703D02*
X2329Y703D01*
X2301Y702D02*
X2328Y702D01*
X2301Y701D02*
X2328Y701D01*
X2300Y700D02*
X2327Y700D01*
X2300Y699D02*
X2327Y699D01*
X2299Y698D02*
X2326Y698D01*
X2298Y697D02*
X2325Y697D01*
X2298Y696D02*
X2325Y696D01*
X2297Y695D02*
X2324Y695D01*
X2296Y694D02*
X2324Y694D01*
X2296Y693D02*
X2323Y693D01*
X2295Y692D02*
X2322Y692D01*
X2295Y691D02*
X2322Y691D01*
X2294Y690D02*
X2321Y690D01*
X2293Y689D02*
X2321Y689D01*
X2293Y688D02*
X2320Y688D01*
X2293Y687D02*
X2319Y687D01*
X2292Y686D02*
X2319Y686D01*
X2292Y685D02*
X2318Y685D01*
X2292Y684D02*
X2317Y684D01*
X2292Y683D02*
X2317Y683D01*
X2292Y682D02*
X2316Y682D01*
X2292Y681D02*
X2316Y681D01*
X2292Y680D02*
X2315Y680D01*
X2293Y679D02*
X2314Y679D01*
X2293Y678D02*
X2314Y678D01*
X2294Y677D02*
X2313Y677D01*
X2294Y676D02*
X2313Y676D01*
X2295Y675D02*
X2312Y675D01*
X2296Y674D02*
X2311Y674D01*
X2298Y673D02*
X2309Y673D01*
X2299Y672D02*
X2307Y672D01*
D02*
G04 End of Copper0*
M02*